<svg width="42" height="33" viewBox="0 0 42 33" fill="none" xmlns="http://www.w3.org/2000/svg">
<path d="M2.80066 0.353882H19.9496C20.6319 0.353882 21.2862 0.640152 21.7686 1.14972C22.251 1.65928 22.522 2.3504 22.522 3.07103V5.78817H24.0139V3.97674C24.0139 3.25611 24.285 2.565 24.7674 2.05543C25.2498 1.54587 25.9041 1.2596 26.5863 1.2596C27.2685 1.2596 27.9228 1.54587 28.4052 2.05543C28.8876 2.565 29.1586 3.25611 29.1586 3.97674V5.78817H31.9539C32.1347 5.77403 32.3151 5.82075 32.4691 5.92164C32.6232 6.02254 32.743 6.1724 32.8114 6.34972L35.9668 14.8453H38.8135C39.4957 14.8453 40.15 15.1316 40.6324 15.6412C41.1148 16.1507 41.3859 16.8418 41.3859 17.5625V26.6196C41.3859 27.3403 41.1148 28.0314 40.6324 28.5409C40.15 29.0505 39.4957 29.3368 38.8135 29.3368H36.1554C35.9586 30.3605 35.4328 31.2809 34.6671 31.942C33.9014 32.603 32.9429 32.9642 31.9539 32.9642C30.965 32.9642 30.0064 32.603 29.2407 31.942C28.475 31.2809 27.9492 30.3605 27.7524 29.3368H13.8618C13.665 30.3605 13.1392 31.2809 12.3734 31.942C11.6077 32.603 10.6492 32.9642 9.66025 32.9642C8.67131 32.9642 7.71277 32.603 6.94706 31.942C6.18135 31.2809 5.65554 30.3605 5.45875 29.3368H2.80066C2.11843 29.3368 1.46414 29.0505 0.981734 28.5409C0.499325 28.0314 0.22831 27.3403 0.22831 26.6196V3.07103C0.22831 2.3504 0.499325 1.65928 0.981734 1.14972C1.46414 0.640152 2.11843 0.353882 2.80066 0.353882ZM27.4437 3.97674C27.4437 3.73653 27.3534 3.50616 27.1926 3.33631C27.0318 3.16645 26.8137 3.07103 26.5863 3.07103C26.3589 3.07103 26.1408 3.16645 25.98 3.33631C25.8192 3.50616 25.7288 3.73653 25.7288 3.97674V5.58892H27.4437V3.97674ZM31.9539 31.1482C32.4627 31.1482 32.96 30.9889 33.383 30.6903C33.8061 30.3917 34.1358 29.9674 34.3305 29.4709C34.5252 28.9744 34.5761 28.428 34.4768 27.901C34.3776 27.3739 34.1326 26.8898 33.7728 26.5098C33.4131 26.1298 32.9548 25.871 32.4558 25.7661C31.9568 25.6613 31.4396 25.7151 30.9695 25.9207C30.4995 26.1264 30.0977 26.4747 29.8151 26.9215C29.5324 27.3683 29.3816 27.8937 29.3816 28.4311C29.3816 29.1517 29.6526 29.8428 30.135 30.3524C30.6174 30.8619 31.2717 31.1482 31.9539 31.1482ZM22.522 27.5253H27.7524C27.9492 26.5016 28.475 25.5813 29.2407 24.9202C30.0064 24.2591 30.965 23.8979 31.9539 23.8979C32.9429 23.8979 33.9014 24.2591 34.6671 24.9202C35.4328 25.5813 35.9586 26.5016 36.1554 27.5253H38.8135C39.0409 27.5253 39.259 27.4299 39.4198 27.2601C39.5806 27.0902 39.671 26.8598 39.671 26.6196V22.0911H22.522V27.5253ZM22.522 20.2796H39.671V17.5625C39.671 17.3223 39.5806 17.0919 39.4198 16.922C39.259 16.7522 39.0409 16.6568 38.8135 16.6568H35.3837C35.203 16.6709 35.0226 16.6242 34.8685 16.5233C34.7145 16.4224 34.5947 16.2725 34.5263 16.0952L31.3709 7.59961H22.522V20.2796ZM9.66025 31.1482C10.169 31.1482 10.6663 30.9889 11.0894 30.6903C11.5124 30.3917 11.8421 29.9674 12.0368 29.4709C12.2315 28.9744 12.2824 28.428 12.1832 27.901C12.0839 27.3739 11.8389 26.8898 11.4792 26.5098C11.1194 26.1298 10.6611 25.871 10.1621 25.7661C9.6631 25.6613 9.14589 25.7151 8.67586 25.9207C8.20582 26.1264 7.80407 26.4747 7.52142 26.9215C7.23877 27.3683 7.0879 27.8937 7.0879 28.4311C7.0879 29.1517 7.35892 29.8428 7.84133 30.3524C8.32374 30.8619 8.97802 31.1482 9.66025 31.1482ZM1.94321 26.6196C1.94321 26.8598 2.03355 27.0902 2.19435 27.2601C2.35515 27.4299 2.57325 27.5253 2.80066 27.5253H5.45875C5.51159 27.2653 5.5862 27.0107 5.68169 26.7645L5.80173 26.5109C5.87283 26.3491 5.953 26.1918 6.04181 26.04L6.2133 25.7864L6.52199 25.406L6.74492 25.1705L7.0879 24.7901L7.34514 24.6089L7.77386 24.3735L8.04824 24.2467L8.56272 24.0836L8.8028 23.9025C9.36793 23.7736 9.95257 23.7736 10.5177 23.9025H10.7749L11.2894 24.0655L11.5638 24.1923L11.9925 24.4278L12.2497 24.6089L12.6099 24.9169L12.8328 25.1524L13.1415 25.5328L13.313 25.7864C13.4018 25.9382 13.482 26.0955 13.5531 26.2573L13.6731 26.5109C13.7686 26.7571 13.8432 27.0117 13.896 27.2717H20.8071V22.0911H1.94321V26.6196ZM1.94321 20.2796H20.8071V3.07103C20.8071 2.83082 20.7167 2.60045 20.5559 2.43059C20.3951 2.26074 20.177 2.16531 19.9496 2.16531H2.80066C2.57325 2.16531 2.35515 2.26074 2.19435 2.43059C2.03355 2.60045 1.94321 2.83082 1.94321 3.07103V20.2796ZM6.23045 8.50532H8.8028V5.78817C8.8028 5.54796 8.89314 5.31759 9.05394 5.14774C9.21474 4.97788 9.43284 4.88246 9.66025 4.88246H13.09C13.3175 4.88246 13.5356 4.97788 13.6964 5.14774C13.8572 5.31759 13.9475 5.54796 13.9475 5.78817V8.50532H16.5198C16.7473 8.50532 16.9653 8.60075 17.1262 8.7706C17.287 8.94045 17.3773 9.17083 17.3773 9.41104V13.0339C17.3773 13.2741 17.287 13.5045 17.1262 13.6743C16.9653 13.8442 16.7473 13.9396 16.5198 13.9396H13.9475V16.6568C13.9475 16.897 13.8572 17.1273 13.6964 17.2972C13.5356 17.4671 13.3175 17.5625 13.09 17.5625H9.66025C9.43284 17.5625 9.21474 17.4671 9.05394 17.2972C8.89314 17.1273 8.8028 16.897 8.8028 16.6568V13.9396H6.23045C6.00304 13.9396 5.78495 13.8442 5.62414 13.6743C5.46334 13.5045 5.373 13.2741 5.373 13.0339V9.41104C5.373 9.17083 5.46334 8.94045 5.62414 8.7706C5.78495 8.60075 6.00304 8.50532 6.23045 8.50532ZM7.0879 12.1282H9.66025C9.88766 12.1282 10.1058 12.2236 10.2666 12.3935C10.4274 12.5633 10.5177 12.7937 10.5177 13.0339V15.751H12.2326V13.0339C12.2326 12.7937 12.3229 12.5633 12.4837 12.3935C12.6445 12.2236 12.8626 12.1282 13.09 12.1282H15.6624V10.3168H13.09C12.8626 10.3168 12.6445 10.2213 12.4837 10.0515C12.3229 9.88162 12.2326 9.65125 12.2326 9.41104V6.69389H10.5177V9.41104C10.5177 9.65125 10.4274 9.88162 10.2666 10.0515C10.1058 10.2213 9.88766 10.3168 9.66025 10.3168H7.0879V12.1282ZM32.1426 16.2582C32.0647 16.3799 31.9601 16.4797 31.8376 16.5492C31.7151 16.6186 31.5785 16.6555 31.4395 16.6568H25.0943C24.8669 16.6568 24.6488 16.5613 24.488 16.3915C24.3272 16.2216 24.2369 15.9913 24.2369 15.751V10.3168C24.2369 10.0765 24.3272 9.84617 24.488 9.67631C24.6488 9.50646 24.8669 9.41104 25.0943 9.41104H29.3816C29.5509 9.41193 29.7161 9.46573 29.8565 9.56566C29.9969 9.66559 30.1061 9.80718 30.1704 9.97258L32.2283 15.4069C32.2816 15.5452 32.3016 15.6954 32.2867 15.8439C32.2717 15.9925 32.2222 16.1348 32.1426 16.2582ZM28.7985 11.2225H25.9518V14.8453H30.1704L28.7985 11.2225Z" fill="black"/>
</svg>
