<svg width="35" height="32" viewBox="0 0 35 32" fill="none" xmlns="http://www.w3.org/2000/svg">
<path fill-rule="evenodd" clip-rule="evenodd" d="M0.724274 3.36842C0.724274 1.50809 2.31698 0 4.28169 0H30.9623C32.927 0 34.5198 1.50809 34.5198 3.36842V28.6316C34.5198 30.4919 32.927 32 30.9623 32H4.28169C2.31698 32 0.724274 30.4919 0.724274 28.6316V3.36842ZM4.28169 1.68421C3.29934 1.68421 2.50298 2.43826 2.50298 3.36842V28.6316C2.50298 29.5618 3.29934 30.3158 4.28169 30.3158H30.9623C31.9447 30.3158 32.7411 29.5618 32.7411 28.6316V3.36842C32.7411 2.43826 31.9447 1.68421 30.9623 1.68421H4.28169ZM16.2946 5.50173C16.2946 5.03663 16.6928 4.65962 17.1839 4.65962H20.7348C21.226 4.65962 21.6241 5.03663 21.6241 5.50173V6.6352C21.6414 6.64977 21.6591 6.66484 21.6771 6.68051C21.842 6.82341 22.0386 7.0128 22.2483 7.2544C23.7469 7.00421 25.5561 7.14611 27.7134 7.90131L28.5233 8.18484L28.2479 8.95975C28.0494 9.51798 27.8311 9.96135 27.6323 10.365L27.627 10.3759C27.4256 10.7847 27.2446 11.1538 27.0798 11.6176L26.7587 12.5208L26.0608 12.2031C28.9568 14.788 28.219 18.6835 26.4099 21.6462C25.4671 23.1901 24.1807 24.5939 22.7719 25.6196C21.3774 26.635 19.7773 27.3406 18.2156 27.3406C16.6487 27.3406 15.0865 26.6304 13.7407 25.6189C12.3823 24.5981 11.1604 23.2095 10.2624 21.7032C9.36694 20.2009 8.76289 18.5294 8.70632 16.9369C8.67324 16.0036 8.82968 15.0839 9.23478 14.2514C9.22633 14.2414 9.21726 14.2309 9.20757 14.2199C9.1197 14.1196 8.98434 13.9792 8.8038 13.8315C8.44014 13.5337 7.92058 13.2275 7.25374 13.1263C7.01655 13.0903 6.80488 12.9651 6.66677 12.7789C6.52865 12.5928 6.47591 12.3618 6.52056 12.1383C6.81787 10.6499 7.08636 9.76539 7.29421 9.23604C7.39853 8.97044 7.49155 8.78408 7.57169 8.65078C7.61206 8.58366 7.65075 8.52741 7.68775 8.48C7.70642 8.45608 7.72492 8.43411 7.74342 8.41373C7.75267 8.40345 7.76201 8.39368 7.77135 8.38417L7.7854 8.37019L7.79242 8.36337L7.79598 8.36L7.79776 8.35832C7.79865 8.35756 7.79954 8.35672 8.42315 8.95705C8.67458 8.14931 8.67475 8.14939 8.67502 8.14947L8.67689 8.14998L8.6808 8.15107L8.69334 8.15461L8.7363 8.16716C8.77267 8.17785 8.82434 8.19335 8.889 8.21364C9.0184 8.25406 9.20081 8.31352 9.41959 8.39158C9.85493 8.54678 10.4447 8.77928 11.0501 9.08615C11.5171 9.32286 12.0138 9.61398 12.4611 9.9616L11.54 8.61811C11.2776 8.23545 11.3847 7.72463 11.7815 7.46594L14.6354 5.60547C15.0297 5.34846 15.5681 5.43301 15.8536 5.7968L16.2946 6.35874V5.50173ZM11.9265 11.8488C11.8392 11.7304 11.7277 11.6072 11.5894 11.48C11.2236 11.1431 10.7325 10.8355 10.2107 10.571C9.73798 10.3315 9.26751 10.1409 8.8938 10.0042C8.77098 10.3496 8.61188 10.8824 8.43036 11.687C9.0795 11.9161 9.59301 12.2511 9.96725 12.5575C10.0564 12.6304 10.1384 12.7024 10.2132 12.7717C10.2949 12.7213 10.3828 12.668 10.4763 12.6125C10.5305 12.5805 10.5867 12.5475 10.6448 12.514C11.0159 12.2274 11.4247 12.0233 11.8514 11.8836C11.8763 11.872 11.9013 11.8604 11.9265 11.8488ZM11.6883 13.8849C11.9413 13.7419 12.2252 13.5912 12.5289 13.4458C12.843 13.3549 13.2018 13.3096 13.6043 13.3083C14.4187 13.3056 15.3269 13.485 16.204 13.7462C17.0744 14.0054 17.8734 14.3328 18.4579 14.5976C18.5062 14.6195 18.5531 14.6409 18.5982 14.6618L18.0583 16.4968L16.115 17.329L13.8212 16.8173L13.4133 18.4566L15.0002 18.8106L14.496 20.0173L16.15 20.6369L16.9002 18.8412L17.4361 18.6117L17.396 18.7483L18.2096 20.5288L18.3663 22.7034L20.1409 22.5888L20.0315 21.071L21.7293 20.8844L21.5242 19.2114L19.6403 19.4184L19.2784 18.6263L20.3121 15.1125L20.3794 15.0083L20.5072 14.8654L20.5105 14.8618L20.5242 14.8467C20.5368 14.8328 20.5564 14.8115 20.5823 14.7837C20.6341 14.7279 20.7112 14.6464 20.8091 14.5463C21.0055 14.3454 21.2829 14.0727 21.6067 13.785C22.1624 13.2916 22.781 12.8218 23.3264 12.5541C23.5456 12.6659 23.7302 12.7514 23.8824 12.8219C23.9495 12.853 24.0103 12.8812 24.065 12.9074C24.2976 13.0189 24.4717 13.116 24.7239 13.3276C26.8169 15.0831 26.5804 18.0024 24.8701 20.8032C24.0371 22.1672 22.9019 23.4004 21.6876 24.2845C20.4592 25.179 19.235 25.6564 18.2156 25.6564C17.2014 25.6564 16.0212 25.1827 14.8464 24.2998C13.6842 23.4264 12.6073 22.2103 11.8114 20.8753C11.0131 19.536 10.5283 18.1293 10.4841 16.8803C10.4407 15.6568 10.8156 14.627 11.6883 13.8849ZM9.31918 14.3571L9.32025 14.3587C9.3206 14.3592 9.32042 14.3589 9.32025 14.3587M9.31918 14.3571C9.31971 14.3579 9.31998 14.3583 9.32025 14.3587C9.45525 14.5526 9.66852 14.6847 9.91025 14.7245C10.1538 14.7645 10.4041 14.7068 10.6008 14.5651M19.5475 13.165C19.5716 13.1352 19.5965 13.1046 19.6222 13.0734C19.975 12.6453 20.4919 12.0828 21.138 11.5683C22.2299 10.6988 23.8614 9.84674 25.7195 10.2803C25.8178 10.0645 25.9159 9.86526 26.0096 9.67495L26.0149 9.66417C26.0912 9.50939 26.1645 9.36025 26.2351 9.20952C23.2049 8.36446 21.3094 9.0427 20.1235 9.97128C19.1159 10.7604 18.535 11.7987 18.2513 12.5071C18.6474 12.7003 19.0374 12.8994 19.3644 13.0693C19.4278 13.1023 19.489 13.1343 19.5475 13.165ZM20.2267 7.7328C19.9885 7.57592 19.8454 7.31806 19.8454 7.04168V6.34383H18.0733V7.36219C18.0733 7.53373 18.018 7.70122 17.9147 7.84211L17.3307 8.6395C17.1675 8.86232 16.9008 8.99714 16.6145 9.00152C16.328 9.00598 16.0569 8.87949 15.8861 8.66181L14.9376 7.4533L13.5032 8.38838L14.3659 9.64674C14.5518 9.91789 14.553 10.2562 14.3924 10.5229C14.3881 10.5386 14.3825 10.5612 14.3761 10.5917C14.3447 10.7426 14.3044 11.0335 14.2864 11.5536C14.3948 11.5683 14.5114 11.5699 14.7382 11.5699C15.1488 11.5699 15.688 11.5718 16.5874 11.7128C17.0021 10.7369 17.6781 9.7899 18.4407 9.03806C18.9554 8.53053 19.5687 8.05482 20.2267 7.7328ZM8.42315 8.95705L8.67502 8.14947C8.36517 8.06299 8.02979 8.14223 7.79954 8.35672L8.42315 8.95705Z" fill="#5D51D8"/>
</svg>
