<svg width="35" height="32" viewBox="0 0 35 32" fill="none" xmlns="http://www.w3.org/2000/svg">
<path fill-rule="evenodd" clip-rule="evenodd" d="M0.724121 3.36842C0.724121 1.50809 2.31683 0 4.28154 0H30.9622C32.9269 0 34.5196 1.50809 34.5196 3.36842V28.6316C34.5196 30.4919 32.9269 32 30.9622 32H4.28154C2.31683 32 0.724121 30.4919 0.724121 28.6316V3.36842ZM4.28154 1.68421C3.29919 1.68421 2.50283 2.43826 2.50283 3.36842V28.6316C2.50283 29.5618 3.29919 30.3158 4.28154 30.3158H30.9622C31.9446 30.3158 32.7409 29.5618 32.7409 28.6316V3.36842C32.7409 2.43826 31.9446 1.68421 30.9622 1.68421H4.28154ZM16.2944 5.50173C16.2944 5.03663 16.6927 4.65962 17.1838 4.65962H20.7346C21.2258 4.65962 21.624 5.03663 21.624 5.50173V6.6352C21.6412 6.64977 21.6589 6.66484 21.677 6.68051C21.8419 6.82341 22.0384 7.0128 22.2481 7.2544C23.7468 7.00421 25.5559 7.14611 27.7132 7.90131L28.5231 8.18484L28.2477 8.95975C28.0493 9.51798 27.831 9.96135 27.6322 10.365L27.6268 10.3759C27.4255 10.7847 27.2444 11.1538 27.0796 11.6176L26.7586 12.5208L26.0606 12.2031C28.9566 14.788 28.2189 18.6835 26.4098 21.6462C25.467 23.1901 24.1805 24.5939 22.7718 25.6196C21.3773 26.635 19.7771 27.3406 18.2154 27.3406C16.6486 27.3406 15.0863 26.6304 13.7405 25.6189C12.3821 24.5981 11.1603 23.2095 10.2623 21.7032C9.36679 20.2009 8.76274 18.5294 8.70617 16.9369C8.67309 16.0036 8.82953 15.0839 9.23463 14.2514C9.22618 14.2414 9.21711 14.2309 9.20741 14.2199C9.11954 14.1196 8.98419 13.9792 8.80365 13.8315C8.43999 13.5337 7.92043 13.2275 7.25359 13.1263C7.0164 13.0903 6.80473 12.9651 6.66661 12.7789C6.5285 12.5928 6.47576 12.3618 6.5204 12.1383C6.81772 10.6499 7.08621 9.76539 7.29405 9.23604C7.39838 8.97044 7.4914 8.78408 7.57153 8.65078C7.61191 8.58366 7.6506 8.52741 7.68759 8.48C7.70627 8.45608 7.72477 8.4341 7.74327 8.41373C7.75252 8.40345 7.76186 8.39368 7.77119 8.38417L7.78525 8.37019L7.79227 8.36337L7.79583 8.36L7.79761 8.35832C7.7985 8.35756 7.79939 8.35672 8.423 8.95705C8.67442 8.14931 8.6746 8.14939 8.67487 8.14947L8.67674 8.14998L8.68065 8.15107L8.69319 8.15461L8.73614 8.16716C8.77252 8.17785 8.82419 8.19335 8.88885 8.21364C9.01825 8.25406 9.20065 8.31352 9.41944 8.39158C9.85477 8.54678 10.4446 8.77928 11.05 9.08615C11.517 9.32286 12.0137 9.61398 12.4609 9.9616L11.5398 8.61811C11.2775 8.23545 11.3846 7.72463 11.7814 7.46594L14.6352 5.60547C15.0296 5.34846 15.5679 5.43301 15.8535 5.7968L16.2944 6.35874V5.50173ZM11.9263 11.8488C11.839 11.7304 11.7276 11.6072 11.5893 11.48C11.2234 11.1431 10.7324 10.8355 10.2105 10.571C9.73783 10.3315 9.26736 10.1409 8.89365 10.0042C8.77083 10.3496 8.61172 10.8824 8.43021 11.687C9.07935 11.9161 9.59286 12.2511 9.9671 12.5575C10.0562 12.6304 10.1382 12.7024 10.213 12.7717C10.2947 12.7213 10.3826 12.668 10.4762 12.6125C10.5303 12.5805 10.5865 12.5475 10.6446 12.514C11.0157 12.2274 11.4246 12.0233 11.8513 11.8836C11.8762 11.872 11.9012 11.8604 11.9263 11.8488ZM11.6882 13.8849C11.9411 13.7419 12.2251 13.5912 12.5287 13.4458C12.8428 13.3549 13.2017 13.3096 13.6041 13.3083C14.4185 13.3056 15.3267 13.485 16.2039 13.7462C17.0743 14.0054 17.8732 14.3328 18.4578 14.5976C18.5061 14.6195 18.5529 14.6409 18.598 14.6618L18.0582 16.4968L16.1149 17.329L13.821 16.8173L13.4132 18.4566L15.0001 18.8106L14.4959 20.0173L16.1498 20.6369L16.9001 18.8412L17.436 18.6117L17.3959 18.7483L18.2095 20.5288L18.3662 22.7034L20.1407 22.5888L20.0313 21.071L21.7292 20.8844L21.5241 19.2114L19.6402 19.4184L19.2782 18.6263L20.3119 15.1125L20.3792 15.0083L20.507 14.8654L20.5103 14.8618L20.524 14.8467C20.5366 14.8328 20.5562 14.8115 20.5822 14.7837C20.6339 14.7279 20.711 14.6464 20.809 14.5463C21.0053 14.3454 21.2827 14.0727 21.6065 13.785C22.1622 13.2916 22.7808 12.8218 23.3263 12.5541C23.5454 12.6659 23.73 12.7514 23.8822 12.8219C23.9494 12.853 24.0102 12.8812 24.0648 12.9074C24.2975 13.0189 24.4715 13.116 24.7237 13.3276C26.8167 15.0831 26.5803 18.0024 24.8699 20.8032C24.037 22.1672 22.9017 23.4004 21.6875 24.2845C20.459 25.179 19.2348 25.6564 18.2154 25.6564C17.2012 25.6564 16.021 25.1827 14.8463 24.2998C13.6841 23.4264 12.6072 22.2103 11.8113 20.8753C11.013 19.536 10.5282 18.1293 10.4839 16.8803C10.4405 15.6568 10.8155 14.627 11.6882 13.8849ZM9.31903 14.3571L9.32009 14.3587C9.32027 14.3589 9.32045 14.3592 9.32009 14.3587M9.31903 14.3571C9.31956 14.3579 9.31983 14.3583 9.32009 14.3587C9.4551 14.5526 9.66837 14.6847 9.91009 14.7245C10.1537 14.7645 10.404 14.7068 10.6007 14.5651M19.5473 13.165C19.5714 13.1352 19.5963 13.1046 19.622 13.0734C19.9748 12.6453 20.4917 12.0828 21.1378 11.5683C22.2297 10.6988 23.8612 9.84674 25.7194 10.2803C25.8176 10.0645 25.9157 9.86526 26.0095 9.67495L26.0147 9.66417C26.091 9.50939 26.1643 9.36025 26.2349 9.20952C23.2047 8.36446 21.3092 9.0427 20.1234 9.97128C19.1157 10.7604 18.5349 11.7987 18.2512 12.5071C18.6472 12.7003 19.0373 12.8994 19.3642 13.0693C19.4276 13.1023 19.4888 13.1343 19.5473 13.165ZM20.2265 7.7328C19.9884 7.57592 19.8453 7.31806 19.8453 7.04168V6.34383H18.0731V7.36219C18.0731 7.53373 18.0178 7.70122 17.9146 7.84211L17.3305 8.63949C17.1673 8.86232 16.9007 8.99714 16.6143 9.00152C16.3279 9.00598 16.0568 8.87949 15.8859 8.66181L14.9374 7.4533L13.503 8.38838L14.3658 9.64674C14.5516 9.91789 14.5529 10.2562 14.3923 10.5229C14.388 10.5386 14.3824 10.5612 14.376 10.5917C14.3445 10.7426 14.3042 11.0335 14.2863 11.5536C14.3947 11.5683 14.5113 11.5699 14.738 11.5699C15.1487 11.5699 15.6879 11.5718 16.5873 11.7128C17.0019 10.7369 17.678 9.7899 18.4405 9.03806C18.9553 8.53053 19.5686 8.05482 20.2265 7.7328ZM8.423 8.95705L8.67487 8.14947C8.36502 8.06299 8.02964 8.14223 7.79939 8.35672L8.423 8.95705Z" fill="#5D51D8"/>
</svg>
