<svg width="31" height="41" viewBox="0 0 31 41" fill="none" xmlns="http://www.w3.org/2000/svg">
<path d="M19.9929 20.9748C21.3449 20.0922 22.4664 18.8322 23.2464 17.3193C24.0265 15.8065 24.4381 14.0932 24.4405 12.349V5.19309C24.4405 4.05437 24.034 2.96229 23.3103 2.15709C22.5867 1.35189 21.6053 0.899536 20.582 0.899536H10.2926C9.26922 0.899536 8.28779 1.35189 7.56418 2.15709C6.84056 2.96229 6.43404 4.05437 6.43404 5.19309V12.349C6.43645 14.0932 6.84804 15.8065 7.62809 17.3193C8.40815 18.8322 9.52964 20.0922 10.8816 20.9748C7.93999 21.1722 5.1768 22.6107 3.15541 24.997C1.13403 27.3832 0.00666612 30.5375 0.00317383 33.8168V38.1103C0.00317383 38.8695 0.274188 39.5975 0.756597 40.1343C1.23901 40.6711 1.89329 40.9727 2.57552 40.9727H28.299C28.9812 40.9727 29.6355 40.6711 30.1179 40.1343C30.6003 39.5975 30.8713 38.8695 30.8713 38.1103V33.8168C30.8679 30.5375 29.7405 27.3832 27.7191 24.997C25.6977 22.6107 22.9345 21.1722 19.9929 20.9748ZM10.2926 3.7619H20.582C20.9231 3.7619 21.2502 3.91269 21.4914 4.18109C21.7326 4.44949 21.8681 4.81352 21.8681 5.19309V9.48664H9.00639V5.19309C9.00639 4.81352 9.1419 4.44949 9.3831 4.18109C9.62431 3.91269 9.95145 3.7619 10.2926 3.7619ZM9.00639 12.349H21.8681C21.8681 14.2469 21.1906 16.067 19.9846 17.409C18.7785 18.751 17.1428 19.5049 15.4373 19.5049C13.7317 19.5049 12.096 18.751 10.8899 17.409C9.68393 16.067 9.00639 14.2469 9.00639 12.349ZM9.00639 29.5232C9.26077 29.5232 9.50944 29.6072 9.72095 29.7644C9.93246 29.9217 10.0973 30.1452 10.1947 30.4067C10.292 30.6682 10.3175 30.956 10.2679 31.2336C10.2182 31.5112 10.0957 31.7663 9.91585 31.9664C9.73598 32.1666 9.5068 32.3029 9.25731 32.3581C9.00782 32.4133 8.74921 32.385 8.51419 32.2767C8.27917 32.1683 8.0783 31.9849 7.93698 31.7495C7.79565 31.5142 7.72022 31.2375 7.72022 30.9544C7.72022 30.5748 7.85572 30.2108 8.09693 29.9424C8.33813 29.674 8.66528 29.5232 9.00639 29.5232ZM2.57552 38.1103V33.8168C2.57784 31.9233 3.06236 30.0693 3.97291 28.4697C4.88346 26.8701 6.18276 25.5903 7.72022 24.7788V26.9256C6.86206 27.2632 6.1388 27.9276 5.67825 28.8012C5.2177 29.6748 5.04952 30.7014 5.20344 31.6997C5.35735 32.6979 5.82346 33.6035 6.51937 34.2563C7.21528 34.9091 8.09618 35.2672 9.00639 35.2672C9.9166 35.2672 10.7975 34.9091 11.4934 34.2563C12.1893 33.6035 12.6554 32.6979 12.8093 31.6997C12.9633 30.7014 12.7951 29.6748 12.3345 28.8012C11.874 27.9276 11.1507 27.2632 10.2926 26.9256V23.9201C10.7181 23.8455 11.148 23.8049 11.5787 23.7985H19.2958V25.4329C18.1946 25.7493 17.2187 26.4627 16.5206 27.4617C15.8225 28.4607 15.4415 29.6889 15.4373 30.9544V33.8168C15.4373 34.1964 15.5728 34.5604 15.814 34.8288C16.0552 35.0972 16.3823 35.248 16.7234 35.248H18.0096C18.3507 35.248 18.6779 35.0972 18.9191 34.8288C19.1603 34.5604 19.2958 34.1964 19.2958 33.8168C19.2958 33.4372 19.1603 33.0732 18.9191 32.8048C18.6779 32.5364 18.3507 32.3856 18.0096 32.3856V30.9544C18.0096 30.1953 18.2806 29.4672 18.763 28.9304C19.2454 28.3936 19.8997 28.092 20.582 28.092C21.2642 28.092 21.9185 28.3936 22.4009 28.9304C22.8833 29.4672 23.1543 30.1953 23.1543 30.9544V32.3856C22.8132 32.3856 22.486 32.5364 22.2448 32.8048C22.0036 33.0732 21.8681 33.4372 21.8681 33.8168C21.8681 34.1964 22.0036 34.5604 22.2448 34.8288C22.486 35.0972 22.8132 35.248 23.1543 35.248H24.4405C24.7816 35.248 25.1087 35.0972 25.3499 34.8288C25.5911 34.5604 25.7266 34.1964 25.7266 33.8168V30.9544C25.7224 29.6889 25.3414 28.4607 24.6433 27.4617C23.9452 26.4627 22.9693 25.7493 21.8681 25.4329V24.2278C23.7235 24.8455 25.3507 26.1116 26.509 27.8386C27.6672 29.5657 28.2949 31.6618 28.299 33.8168V38.1103H2.57552Z" fill="black" fill-opacity="0.66"/>
</svg>
