<svg width="25" height="23" viewBox="0 0 25 23" fill="none" xmlns="http://www.w3.org/2000/svg">
<path d="M12.2797 0C5.56609 0 0.104523 5.15879 0.104523 11.4998C0.104523 17.841 5.56609 23 12.2797 23C18.993 23 24.455 17.841 24.455 11.4998C24.455 5.15879 18.993 0 12.2797 0ZM15.7208 7.25959C15.7208 7.31405 15.6979 7.36627 15.6571 7.40477C15.6164 7.44328 15.5611 7.46491 15.5034 7.46491L14.1194 7.46573C13.2062 7.46573 13.0393 7.80163 13.0393 8.46316V9.8355H15.413C15.4754 9.8355 15.535 9.86096 15.576 9.9053C15.6171 9.94965 15.6362 10.0086 15.6286 10.0671L15.2906 12.5377C15.2839 12.5872 15.2582 12.6326 15.2185 12.6656C15.1789 12.6985 15.1278 12.7167 15.075 12.7167H13.0393V18.8514C13.0393 18.9058 13.0164 18.958 12.9756 18.9965C12.9348 19.0351 12.8795 19.0567 12.8219 19.0567H10.1212C10.0636 19.0567 10.0083 19.0351 9.9675 18.9965C9.92673 18.958 9.90383 18.9058 9.90383 18.8514V12.7167H7.86158C7.80393 12.7167 7.74864 12.6951 7.70787 12.6566C7.66711 12.6181 7.64421 12.5658 7.64421 12.5114V10.0408C7.64421 9.98636 7.66711 9.93414 7.70787 9.89563C7.74864 9.85713 7.80393 9.8355 7.86158 9.8355H9.90383V8.21863C9.90383 6.07717 11.2759 4.74713 13.4851 4.74713C14.4348 4.74713 15.2741 4.81386 15.5319 4.84609C15.5842 4.85261 15.6321 4.87684 15.6669 4.91427C15.7016 4.9517 15.7208 4.99978 15.7208 5.04956V7.25959Z" fill="#231F20"/>
</svg>
