<svg width="40" height="38" viewBox="0 0 40 38" fill="none" xmlns="http://www.w3.org/2000/svg">
<path fill-rule="evenodd" clip-rule="evenodd" d="M32.3561 6.33333H7.97892C7.53015 6.33333 7.16635 6.68778 7.16635 7.125V30.875C7.16635 31.3122 7.53015 31.6667 7.97892 31.6667H32.3561C32.8049 31.6667 33.1686 31.3122 33.1686 30.875V7.125C33.1686 6.68777 32.8049 6.33333 32.3561 6.33333ZM7.97892 4.75C6.63261 4.75 5.54121 5.81333 5.54121 7.125V30.875C5.54121 32.1867 6.63261 33.25 7.97892 33.25H32.3561C33.7024 33.25 34.7938 32.1867 34.7938 30.875V7.125C34.7938 5.81333 33.7024 4.75 32.3561 4.75H7.97892Z" fill="#5D51D8" fill-opacity="0.92"/>
<path fill-rule="evenodd" clip-rule="evenodd" d="M10.4013 14.4745C10.2324 14.1818 10.3029 13.8288 10.6234 13.5134C10.779 13.3602 10.9436 13.275 11.0547 13.247C11.0703 13.2431 11.0827 13.2406 11.0925 13.239C11.8829 13.9188 12.439 14.2462 13.0472 14.2495C13.1864 14.2502 13.3058 14.2337 13.3885 14.2209C13.4239 14.2153 13.4503 14.211 13.4721 14.2074C13.511 14.201 13.5353 14.197 13.5701 14.1931C13.6313 14.1862 13.7089 14.1818 13.8576 14.2217L14.2888 12.6951C13.9201 12.5962 13.6313 12.5923 13.3835 12.6203C13.3037 12.6292 13.2168 12.6435 13.1648 12.652L13.1323 12.6573C13.0773 12.6659 13.0616 12.6662 13.0563 12.6662L13.0539 12.666C13.0539 12.666 13.0495 12.6655 13.0414 12.6632C13.0247 12.6584 12.9839 12.6446 12.9117 12.6055C12.7594 12.5227 12.5171 12.3549 12.1282 12.0178C11.6686 11.6194 11.0925 11.6022 10.6484 11.714C10.2047 11.8256 9.79161 12.0815 9.46853 12.3994C8.83164 13.0261 8.34117 14.1348 8.98448 15.2502C9.35314 15.8892 9.77024 16.4195 10.1318 16.8213C10.121 16.469 10.2173 16.1523 10.431 15.9233C10.6255 15.7147 10.8916 15.6066 11.1914 15.5916C10.9307 15.2837 10.6511 14.9076 10.4013 14.4745Z" fill="#5D51D8" fill-opacity="0.92"/>
<path d="M13.9213 16.9752C14.8495 17.8414 15.1083 19.0253 14.4995 19.6194C13.8906 20.2136 12.6445 19.9931 11.7164 19.1268C10.7882 18.2606 10.5293 17.0767 11.1382 16.4825C11.7471 15.8884 12.9931 16.1089 13.9213 16.9752Z" fill="#5D51D8" fill-opacity="0.92"/>
<path fill-rule="evenodd" clip-rule="evenodd" d="M30.1347 14.4745C30.3035 14.1817 30.2331 13.8288 29.9125 13.5134C29.757 13.3602 29.5923 13.2749 29.4812 13.247C29.4657 13.2431 29.4532 13.2406 29.4435 13.239C28.6529 13.9188 28.0968 14.2461 27.4888 14.2494C27.3496 14.2502 27.2301 14.2337 27.1473 14.2208C27.112 14.2153 27.0857 14.211 27.0639 14.2074C27.025 14.201 27.0007 14.197 26.9659 14.1931C26.9046 14.1862 26.827 14.1818 26.6782 14.2217L26.2472 12.695C26.6158 12.5962 26.9046 12.5923 27.1524 12.6202C27.2322 12.6292 27.319 12.6435 27.371 12.652L27.4036 12.6572C27.4585 12.6659 27.4744 12.6662 27.4796 12.6661L27.4819 12.666C27.4819 12.666 27.4864 12.6654 27.4945 12.6631C27.5112 12.6584 27.552 12.6446 27.6241 12.6054C27.7764 12.5227 28.0187 12.3549 28.4076 12.0177C28.8673 11.6194 29.4434 11.6022 29.8876 11.7139C30.3312 11.8256 30.7443 12.0814 31.0674 12.3993C31.7042 13.0261 32.1948 14.1348 31.5514 15.2502C31.1828 15.8892 30.7656 16.4194 30.4041 16.8213C30.4149 16.469 30.3186 16.1523 30.1049 15.9233C29.9104 15.7147 29.6444 15.6066 29.3444 15.5915C29.6052 15.2836 29.8849 14.9075 30.1347 14.4745Z" fill="#5D51D8" fill-opacity="0.92"/>
<path d="M26.6146 16.9752C25.6864 17.8413 25.4275 19.0253 26.0364 19.6194C26.6452 20.2136 27.8912 19.993 28.8194 19.1268C29.7476 18.2606 30.0065 17.0767 29.3977 16.4825C28.7888 15.8884 27.5428 16.1089 26.6146 16.9752ZM20.257 11.0833C11.4532 11.0833 14.7546 17.4504 16.9556 17.4504C18.7816 17.4504 17.7734 24.511 18.9486 26.9167C19.19 27.4107 19.8195 26.9167 20.257 26.9167C20.6944 26.9167 21.1627 27.4107 21.3864 26.9167C22.4755 24.511 21.3656 17.4504 23.1915 17.4504C25.3924 17.4504 29.0607 11.0833 20.257 11.0833Z" fill="#5D51D8" fill-opacity="0.92"/>
</svg>
