<svg width="22" height="20" viewBox="0 0 22 20" fill="none" xmlns="http://www.w3.org/2000/svg">
<path d="M17.0424 3.46C16.7912 3.46 16.5455 3.53038 16.3366 3.66224C16.1277 3.79409 15.9649 3.98151 15.8687 4.20078C15.7725 4.42005 15.7474 4.66133 15.7964 4.89411C15.8454 5.12689 15.9664 5.34071 16.1441 5.50853C16.3218 5.67635 16.5482 5.79064 16.7946 5.83694C17.041 5.88324 17.2965 5.85948 17.5286 5.76866C17.7608 5.67783 17.9592 5.52402 18.0988 5.32668C18.2384 5.12935 18.3129 4.89734 18.3129 4.66C18.3129 4.34174 18.1791 4.03652 17.9408 3.81147C17.7025 3.58643 17.3794 3.46 17.0424 3.46ZM21.9125 5.88C21.892 5.0503 21.7274 4.2294 21.4255 3.45C21.1563 2.78313 20.7374 2.17928 20.1974 1.68C19.6732 1.16743 19.0324 0.774176 18.3235 0.53C17.5005 0.236161 16.6304 0.07721 15.7508 0.0599999C14.6286 -5.58794e-08 14.2686 0 11.3889 0C8.5092 0 8.14924 -5.58794e-08 7.027 0.0599999C6.14737 0.07721 5.27731 0.236161 4.45433 0.53C3.74676 0.776649 3.10651 1.16956 2.5804 1.68C2.03773 2.17518 1.62139 2.78044 1.36288 3.45C1.05178 4.22734 0.883501 5.04915 0.865281 5.88C0.801758 6.94 0.801758 7.28 0.801758 10C0.801758 12.72 0.801758 13.06 0.865281 14.12C0.883501 14.9508 1.05178 15.7727 1.36288 16.55C1.62139 17.2196 2.03773 17.8248 2.5804 18.32C3.10651 18.8304 3.74676 19.2234 4.45433 19.47C5.27731 19.7638 6.14737 19.9228 7.027 19.94C8.14924 20 8.5092 20 11.3889 20C14.2686 20 14.6286 20 15.7508 19.94C16.6304 19.9228 17.5005 19.7638 18.3235 19.47C19.0324 19.2258 19.6732 18.8326 20.1974 18.32C20.7397 17.8226 21.1591 17.2182 21.4255 16.55C21.7274 15.7706 21.892 14.9497 21.9125 14.12C21.9125 13.06 21.9761 12.72 21.9761 10C21.9761 7.28 21.9761 6.94 21.9125 5.88ZM20.0069 14C19.9991 14.6348 19.8774 15.2637 19.6469 15.86C19.4778 16.2952 19.2063 16.6884 18.8529 17.01C18.5095 17.3405 18.094 17.5964 17.6353 17.76C17.004 17.9778 16.3382 18.0927 15.6661 18.1C14.6074 18.15 14.2157 18.16 11.4313 18.16C8.64684 18.16 8.25511 18.16 7.1964 18.1C6.49859 18.1123 5.80376 18.0109 5.14249 17.8C4.70395 17.6281 4.30754 17.3728 3.9779 17.05C3.6265 16.7287 3.35839 16.3352 3.19445 15.9C2.93598 15.2952 2.79261 14.6519 2.77097 14C2.77097 13 2.70745 12.63 2.70745 10C2.70745 7.37 2.70745 7 2.77097 6C2.77571 5.35106 2.90114 4.70795 3.14152 4.1C3.3279 3.67791 3.61399 3.30166 3.9779 3C4.29956 2.65617 4.69708 2.3831 5.14249 2.2C5.78783 1.98004 6.468 1.86508 7.15405 1.86C8.21276 1.86 8.60449 1.8 11.3889 1.8C14.1733 1.8 14.5651 1.8 15.6238 1.86C16.2958 1.86728 16.9617 1.98225 17.593 2.2C18.0741 2.36865 18.5059 2.64285 18.8529 3C19.1998 3.30718 19.4709 3.68273 19.6469 4.1C19.8822 4.70893 20.004 5.35178 20.0069 6C20.0598 7 20.0704 7.37 20.0704 10C20.0704 12.63 20.0598 13 20.0069 14ZM11.3889 4.87C10.3152 4.87198 9.26615 5.17453 8.37438 5.73942C7.48262 6.30431 6.78813 7.1062 6.37868 8.04375C5.96923 8.98131 5.86318 10.0125 6.07394 11.0069C6.2847 12.0014 6.80281 12.9145 7.56279 13.631C8.32278 14.3474 9.29055 14.835 10.3438 15.0321C11.3971 15.2293 12.4886 15.1271 13.4804 14.7385C14.4722 14.35 15.3198 13.6924 15.9161 12.849C16.5124 12.0056 16.8307 11.0142 16.8307 10C16.8321 9.3251 16.6922 8.65661 16.4191 8.03296C16.146 7.40931 15.7451 6.84281 15.2393 6.36605C14.7336 5.88929 14.133 5.51168 13.4722 5.25493C12.8114 4.99818 12.1034 4.86736 11.3889 4.87ZM11.3889 13.33C10.6916 13.33 10.01 13.1347 9.43023 12.7688C8.85047 12.4029 8.39859 11.8828 8.13175 11.2743C7.86491 10.6659 7.7951 9.99631 7.93113 9.35035C8.06716 8.70439 8.40294 8.11104 8.89599 7.64533C9.38904 7.17963 10.0172 6.86247 10.7011 6.73398C11.385 6.6055 12.0939 6.67144 12.7381 6.92348C13.3823 7.17552 13.9329 7.60234 14.3203 8.14995C14.7077 8.69757 14.9144 9.34139 14.9144 10C14.9144 10.4373 14.8232 10.8703 14.6461 11.2743C14.4689 11.6784 14.2092 12.0454 13.8818 12.3547C13.5545 12.6639 13.1658 12.9092 12.7381 13.0765C12.3103 13.2439 11.8519 13.33 11.3889 13.33Z" fill="black"/>
</svg>
