<svg width="31" height="32" viewBox="0 0 31 32" fill="none" xmlns="http://www.w3.org/2000/svg">
<path fill-rule="evenodd" clip-rule="evenodd" d="M12.4298 0C12.8834 0 13.2512 0.358176 13.2512 0.8V7.47448C13.2512 8.53536 12.8185 9.5528 12.0482 10.303L11.6344 10.7061C10.9006 11.4206 10.9006 12.5794 11.6344 13.2939C12.2063 13.8509 13.0798 13.989 13.8033 13.6367L14.0024 13.5398C15.0807 13.0146 16.3501 13.0146 17.4285 13.5398L17.6276 13.6367C18.351 13.989 19.2246 13.8509 19.7965 13.2939C20.5303 12.5794 20.5303 11.4206 19.7965 10.7061L19.3827 10.303C18.6124 9.5528 18.1797 8.53536 18.1797 7.47448V0.8C18.1797 0.358176 18.5474 0 19.0011 0C19.4548 0 19.8225 0.358176 19.8225 0.8V2.16284C25.9902 3.89618 30.501 9.43504 30.501 16C30.501 22.565 25.9902 28.1038 19.8225 29.8372V31.2C19.8225 31.6418 19.4548 32 19.0011 32C18.5474 32 18.1797 31.6418 18.1797 31.2V24.5255C18.1797 23.4646 18.6124 22.4472 19.3827 21.697L19.7965 21.2939C20.5303 20.5794 20.5303 19.4206 19.7965 18.7061C19.2246 18.1491 18.351 18.011 17.6276 18.3633L17.4285 18.4602C16.3501 18.9854 15.0807 18.9854 14.0024 18.4602L13.8033 18.3633C13.0798 18.011 12.2063 18.1491 11.6344 18.7061C10.9006 19.4206 10.9006 20.5794 11.6344 21.2939L12.0482 21.697C12.8185 22.4472 13.2512 23.4646 13.2512 24.5255V31.2C13.2512 31.6418 12.8834 32 12.4298 32C11.9761 32 11.6083 31.6418 11.6083 31.2V29.8372C5.44064 28.1038 0.929901 22.565 0.929901 16C0.929901 9.43504 5.44064 3.89618 11.6083 2.16284V0.8C11.6083 0.358176 11.9761 0 12.4298 0ZM11.6083 3.83742C6.3612 5.51712 2.57274 10.3277 2.57274 16C2.57274 21.6724 6.3612 26.483 11.6083 28.1626V24.5255C11.6083 23.889 11.3487 23.2785 10.8866 22.8284L10.4726 22.4254C9.09735 21.0858 9.09735 18.9142 10.4726 17.5746C11.5446 16.5307 13.1821 16.2719 14.5379 16.9322L14.737 17.0291C15.3529 17.329 16.0779 17.329 16.6938 17.0291L16.8929 16.9322C18.2488 16.2719 19.8863 16.5307 20.9582 17.5746C22.3335 18.9142 22.3335 21.0858 20.9582 22.4254L20.5443 22.8284C20.0822 23.2785 19.8225 23.889 19.8225 24.5255V28.1626C25.0697 26.483 28.8581 21.6724 28.8581 16C28.8581 10.3277 25.0697 5.51712 19.8225 3.83742V7.47448C19.8225 8.11104 20.0822 8.72152 20.5443 9.1716L20.9582 9.57464C22.3335 10.9142 22.3335 13.0858 20.9582 14.4254C19.8863 15.4693 18.2488 15.7281 16.8929 15.0678L16.6938 14.9709C16.0779 14.671 15.3529 14.671 14.737 14.9709L14.5379 15.0678C13.1821 15.7281 11.5446 15.4693 10.4726 14.4254C9.09735 13.0858 9.09735 10.9142 10.4726 9.57464L10.8866 9.1716C11.3487 8.72152 11.6083 8.11104 11.6083 7.47448V3.83742Z" fill="#4C3FD4"/>
</svg>
