<svg width="31" height="32" viewBox="0 0 31 32" fill="none" xmlns="http://www.w3.org/2000/svg">
<path fill-rule="evenodd" clip-rule="evenodd" d="M12.4295 0C12.8832 0 13.251 0.358176 13.251 0.8V7.47448C13.251 8.53536 12.8182 9.5528 12.048 10.303L11.6342 10.7061C10.9004 11.4206 10.9004 12.5794 11.6342 13.2939C12.206 13.8509 13.0796 13.989 13.803 13.6367L14.0022 13.5398C15.0805 13.0146 16.3499 13.0146 17.4283 13.5398L17.6274 13.6367C18.3508 13.989 19.2244 13.8509 19.7963 13.2939C20.53 12.5794 20.53 11.4206 19.7963 10.7061L19.3824 10.303C18.6122 9.5528 18.1795 8.53536 18.1795 7.47448V0.8C18.1795 0.358176 18.5472 0 19.0009 0C19.4546 0 19.8223 0.358176 19.8223 0.8V2.16284C25.99 3.89618 30.5008 9.43504 30.5008 16C30.5008 22.565 25.99 28.1038 19.8223 29.8372V31.2C19.8223 31.6418 19.4546 32 19.0009 32C18.5472 32 18.1795 31.6418 18.1795 31.2V24.5255C18.1795 23.4646 18.6122 22.4472 19.3824 21.697L19.7963 21.2939C20.53 20.5794 20.53 19.4206 19.7963 18.7061C19.2244 18.1491 18.3508 18.011 17.6274 18.3633L17.4283 18.4602C16.3499 18.9854 15.0805 18.9854 14.0022 18.4602L13.803 18.3633C13.0796 18.011 12.206 18.1491 11.6342 18.7061C10.9004 19.4206 10.9004 20.5794 11.6342 21.2939L12.048 21.697C12.8182 22.4472 13.251 23.4646 13.251 24.5255V31.2C13.251 31.6418 12.8832 32 12.4295 32C11.9759 32 11.6081 31.6418 11.6081 31.2V29.8372C5.44042 28.1038 0.929688 22.565 0.929688 16C0.929688 9.43504 5.44042 3.89618 11.6081 2.16284V0.8C11.6081 0.358176 11.9759 0 12.4295 0ZM11.6081 3.83742C6.36099 5.51712 2.57252 10.3277 2.57252 16C2.57252 21.6724 6.36099 26.483 11.6081 28.1626V24.5255C11.6081 23.889 11.3485 23.2785 10.8863 22.8284L10.4724 22.4254C9.09713 21.0858 9.09713 18.9142 10.4724 17.5746C11.5444 16.5307 13.1819 16.2719 14.5377 16.9322L14.7368 17.0291C15.3527 17.329 16.0777 17.329 16.6936 17.0291L16.8927 16.9322C18.2486 16.2719 19.8861 16.5307 20.958 17.5746C22.3333 18.9142 22.3333 21.0858 20.958 22.4254L20.5441 22.8284C20.082 23.2785 19.8223 23.889 19.8223 24.5255V28.1626C25.0694 26.483 28.8579 21.6724 28.8579 16C28.8579 10.3277 25.0694 5.51712 19.8223 3.83742V7.47448C19.8223 8.11104 20.082 8.72152 20.5441 9.1716L20.958 9.57464C22.3333 10.9142 22.3333 13.0858 20.958 14.4254C19.8861 15.4693 18.2486 15.7281 16.8927 15.0678L16.6936 14.9709C16.0777 14.671 15.3527 14.671 14.7368 14.9709L14.5377 15.0678C13.1819 15.7281 11.5444 15.4693 10.4724 14.4254C9.09713 13.0858 9.09713 10.9142 10.4724 9.57464L10.8863 9.1716C11.3485 8.72152 11.6081 8.11104 11.6081 7.47448V3.83742Z" fill="#4C3FD4"/>
</svg>
