<svg width="23" height="20" viewBox="0 0 23 20" fill="none" xmlns="http://www.w3.org/2000/svg">
<path d="M20.5828 0.000139831H2.53995C2.33713 -0.00250479 2.13574 0.0323873 1.94729 0.102824C1.75883 0.17326 1.587 0.27786 1.44161 0.410652C1.29622 0.543443 1.18011 0.701824 1.09992 0.876749C1.01973 1.05167 0.977021 1.23972 0.974243 1.43014V18.5701C0.977021 18.7606 1.01973 18.9486 1.09992 19.1235C1.18011 19.2985 1.29622 19.4568 1.44161 19.5896C1.587 19.7224 1.75883 19.827 1.94729 19.8975C2.13574 19.9679 2.33713 20.0028 2.53995 20.0001H20.5828C20.7857 20.0028 20.987 19.9679 21.1755 19.8975C21.364 19.827 21.5358 19.7224 21.6812 19.5896C21.8266 19.4568 21.9427 19.2985 22.0229 19.1235C22.1031 18.9486 22.1458 18.7606 22.1485 18.5701V1.43014C22.1458 1.23972 22.1031 1.05167 22.0229 0.876749C21.9427 0.701824 21.8266 0.543443 21.6812 0.410652C21.5358 0.27786 21.364 0.17326 21.1755 0.102824C20.987 0.0323873 20.7857 -0.00250479 20.5828 0.000139831ZM7.39683 16.7401H4.20151V7.74014H7.39683V16.7401ZM5.79917 6.48014C5.3585 6.48014 4.93587 6.31578 4.62427 6.02323C4.31266 5.73067 4.13761 5.33388 4.13761 4.92014C4.13761 4.5064 4.31266 4.10961 4.62427 3.81705C4.93587 3.5245 5.3585 3.36014 5.79917 3.36014C6.03317 3.33522 6.27014 3.35699 6.49455 3.42402C6.71897 3.49105 6.92578 3.60183 7.10143 3.7491C7.27709 3.89637 7.41763 4.07682 7.51386 4.27862C7.61008 4.48043 7.65982 4.69904 7.65982 4.92014C7.65982 5.14124 7.61008 5.35985 7.51386 5.56166C7.41763 5.76346 7.27709 5.94391 7.10143 6.09118C6.92578 6.23845 6.71897 6.34923 6.49455 6.41626C6.27014 6.48329 6.03317 6.50505 5.79917 6.48014ZM18.9213 16.7401H15.726V11.9101C15.726 10.7001 15.268 9.91014 14.107 9.91014C13.7477 9.91261 13.3978 10.0184 13.1046 10.2133C12.8113 10.4082 12.5887 10.6828 12.4667 11.0001C12.3834 11.2352 12.3473 11.4827 12.3602 11.7301V16.7301H9.16491C9.16491 16.7301 9.16491 8.55014 9.16491 7.73014H12.3602V9.00014C12.6505 8.52725 13.0727 8.13766 13.5813 7.87334C14.0899 7.60902 14.6657 7.47999 15.2467 7.50014C17.3769 7.50014 18.9213 8.79014 18.9213 11.5601V16.7401Z" fill="black"/>
</svg>
