<svg width="41" height="36" viewBox="0 0 41 36" fill="none" xmlns="http://www.w3.org/2000/svg">
<g filter="url(#filter0_d_11_9718)">
<path d="M31.6004 8.49331C30.4694 8.4915 29.3741 8.82746 28.5086 9.44168C27.643 10.0559 27.0631 10.9088 26.8714 11.8492C26.6798 12.7896 26.8888 13.7569 27.4615 14.5797C28.0341 15.4026 28.9335 16.0279 30.0003 16.3449V18.6183C30.0003 20.2295 29.2416 21.7747 27.8913 22.914C26.5409 24.0533 24.7095 24.6933 22.7998 24.6933C20.8901 24.6933 19.0586 24.0533 17.7083 22.914C16.3579 21.7747 15.5993 20.2295 15.5993 18.6183V17.2413L20.598 13.869C21.5368 13.2382 22.2945 12.4365 22.8143 11.5238C23.3341 10.6112 23.6026 9.61117 23.5998 8.59861V1.74331C23.5998 1.38527 23.4313 1.04189 23.1312 0.788716C22.8311 0.535542 22.4241 0.393311 21.9997 0.393311H18.7995C18.3752 0.393311 17.9682 0.535542 17.6681 0.788716C17.368 1.04189 17.1994 1.38527 17.1994 1.74331C17.1994 2.10135 17.368 2.44473 17.6681 2.6979C17.9682 2.95108 18.3752 3.09331 18.7995 3.09331H20.3996V8.59861C20.4013 9.20598 20.2402 9.80582 19.9285 10.3533C19.6168 10.9008 19.1625 11.3818 18.5995 11.7603L13.9992 14.8653L9.40051 11.7603C8.83715 11.382 8.38246 10.9011 8.07046 10.3536C7.75846 9.80605 7.59721 9.20611 7.59879 8.59861V3.09331H9.1989C9.62327 3.09331 10.0303 2.95108 10.3303 2.6979C10.6304 2.44473 10.799 2.10135 10.799 1.74331C10.799 1.38527 10.6304 1.04189 10.3303 0.788716C10.0303 0.535542 9.62327 0.393311 9.1989 0.393311H5.99869C5.57431 0.393311 5.16732 0.535542 4.86724 0.788716C4.56717 1.04189 4.39858 1.38527 4.39858 1.74331V8.59861C4.39567 9.61119 4.66416 10.6112 5.18398 11.5239C5.7038 12.4366 6.46149 13.2383 7.40038 13.869L12.3991 17.2413V18.6183C12.3991 20.9456 13.4949 23.1775 15.4454 24.8232C17.3959 26.4688 20.0414 27.3933 22.7998 27.3933C25.5582 27.3933 28.2037 26.4688 30.1542 24.8232C32.1047 23.1775 33.2005 20.9456 33.2005 18.6183V16.3449C34.2672 16.0279 35.1666 15.4026 35.7393 14.5797C36.3119 13.7569 36.5209 12.7896 36.3293 11.8492C36.1376 10.9088 35.5577 10.0559 34.6922 9.44168C33.8266 8.82746 32.7314 8.4915 31.6004 8.49331ZM31.6004 13.8933C31.2839 13.8933 30.9745 13.8141 30.7114 13.6658C30.4483 13.5175 30.2432 13.3066 30.1221 13.0599C30.001 12.8133 29.9693 12.5418 30.031 12.2799C30.0927 12.0181 30.2451 11.7775 30.4689 11.5887C30.6927 11.3999 30.9778 11.2713 31.2882 11.2193C31.5986 11.1672 31.9203 11.1939 32.2127 11.2961C32.5051 11.3983 32.755 11.5713 32.9308 11.7933C33.1066 12.0153 33.2005 12.2763 33.2005 12.5433C33.2 12.9012 33.0313 13.2444 32.7313 13.4975C32.4314 13.7506 32.0246 13.893 31.6004 13.8933Z" fill="black"/>
</g>
<defs>
<filter id="filter0_d_11_9718" x="0.39856" y="0.393311" width="40" height="35" filterUnits="userSpaceOnUse" color-interpolation-filters="sRGB">
<feFlood flood-opacity="0" result="BackgroundImageFix"/>
<feColorMatrix in="SourceAlpha" type="matrix" values="0 0 0 0 0 0 0 0 0 0 0 0 0 0 0 0 0 0 127 0" result="hardAlpha"/>
<feOffset dy="4"/>
<feGaussianBlur stdDeviation="2"/>
<feComposite in2="hardAlpha" operator="out"/>
<feColorMatrix type="matrix" values="0 0 0 0 0 0 0 0 0 0 0 0 0 0 0 0 0 0 0.25 0"/>
<feBlend mode="normal" in2="BackgroundImageFix" result="effect1_dropShadow_11_9718"/>
<feBlend mode="normal" in="SourceGraphic" in2="effect1_dropShadow_11_9718" result="shape"/>
</filter>
</defs>
</svg>
