<svg width="41" height="36" viewBox="0 0 41 36" fill="none" xmlns="http://www.w3.org/2000/svg">
<g filter="url(#filter0_d_1_538)">
<path d="M31.6004 8.76406C30.4694 8.76226 29.3741 9.09821 28.5086 9.71244C27.643 10.3267 27.0631 11.1795 26.8714 12.1199C26.6798 13.0603 26.8888 14.0276 27.4615 14.8505C28.0341 15.6733 28.9335 16.2987 30.0003 16.6157V18.8891C30.0003 20.5003 29.2416 22.0455 27.8913 23.1847C26.5409 24.324 24.7095 24.9641 22.7998 24.9641C20.8901 24.9641 19.0586 24.324 17.7083 23.1847C16.3579 22.0455 15.5993 20.5003 15.5993 18.8891V17.5121L20.598 14.1398C21.5368 13.5089 22.2945 12.7072 22.8143 11.7946C23.3341 10.8819 23.6026 9.88192 23.5998 8.86936V2.01406C23.5998 1.65602 23.4313 1.31264 23.1312 1.05947C22.8311 0.806294 22.4241 0.664063 21.9997 0.664062H18.7995C18.3751 0.664063 17.9682 0.806294 17.6681 1.05947C17.368 1.31264 17.1994 1.65602 17.1994 2.01406C17.1994 2.3721 17.368 2.71548 17.6681 2.96866C17.9682 3.22183 18.3751 3.36406 18.7995 3.36406H20.3996V8.86936C20.4013 9.47674 20.2402 10.0766 19.9285 10.6241C19.6168 11.1715 19.1625 11.6525 18.5995 12.0311L13.9992 15.1361L9.40051 12.0311C8.83715 11.6527 8.38246 11.1718 8.07046 10.6243C7.75846 10.0768 7.59721 9.47686 7.59879 8.86936V3.36406H9.1989C9.62327 3.36406 10.0303 3.22183 10.3303 2.96866C10.6304 2.71548 10.799 2.3721 10.799 2.01406C10.799 1.65602 10.6304 1.31264 10.3303 1.05947C10.0303 0.806294 9.62327 0.664063 9.1989 0.664062H5.99869C5.57431 0.664063 5.16732 0.806294 4.86724 1.05947C4.56717 1.31264 4.39858 1.65602 4.39858 2.01406V8.86936C4.39567 9.88194 4.66416 10.882 5.18398 11.7946C5.7038 12.7073 6.46149 13.509 7.40038 14.1398L12.3991 17.5121V18.8891C12.3991 21.2163 13.4949 23.4483 15.4454 25.0939C17.3959 26.7396 20.0414 27.6641 22.7998 27.6641C25.5582 27.6641 28.2037 26.7396 30.1542 25.0939C32.1047 23.4483 33.2005 21.2163 33.2005 18.8891V16.6157C34.2672 16.2987 35.1666 15.6733 35.7393 14.8505C36.3119 14.0276 36.5209 13.0603 36.3293 12.1199C36.1376 11.1795 35.5577 10.3267 34.6922 9.71244C33.8266 9.09821 32.7314 8.76226 31.6004 8.76406ZM31.6004 14.1641C31.2839 14.1641 30.9745 14.0849 30.7114 13.9365C30.4483 13.7882 30.2432 13.5774 30.1221 13.3307C30.0009 13.084 29.9693 12.8126 30.031 12.5507C30.0927 12.2888 30.2451 12.0483 30.4689 11.8595C30.6927 11.6707 30.9778 11.5421 31.2882 11.49C31.5986 11.4379 31.9203 11.4646 32.2127 11.5668C32.5051 11.669 32.755 11.842 32.9308 12.064C33.1066 12.286 33.2005 12.5471 33.2005 12.8141C33.2 13.172 33.0313 13.5152 32.7313 13.7683C32.4314 14.0214 32.0246 14.1637 31.6004 14.1641Z" fill="black"/>
</g>
<defs>
<filter id="filter0_d_1_538" x="0.39856" y="0.664062" width="40" height="35" filterUnits="userSpaceOnUse" color-interpolation-filters="sRGB">
<feFlood flood-opacity="0" result="BackgroundImageFix"/>
<feColorMatrix in="SourceAlpha" type="matrix" values="0 0 0 0 0 0 0 0 0 0 0 0 0 0 0 0 0 0 127 0" result="hardAlpha"/>
<feOffset dy="4"/>
<feGaussianBlur stdDeviation="2"/>
<feComposite in2="hardAlpha" operator="out"/>
<feColorMatrix type="matrix" values="0 0 0 0 0 0 0 0 0 0 0 0 0 0 0 0 0 0 0.25 0"/>
<feBlend mode="normal" in2="BackgroundImageFix" result="effect1_dropShadow_1_538"/>
<feBlend mode="normal" in="SourceGraphic" in2="effect1_dropShadow_1_538" result="shape"/>
</filter>
</defs>
</svg>
