<svg width="41" height="36" viewBox="0 0 41 36" fill="none" xmlns="http://www.w3.org/2000/svg">
<g filter="url(#filter0_d_10_6265)">
<path d="M31.6004 8.76455C30.4694 8.76274 29.3741 9.0987 28.5086 9.71292C27.643 10.3271 27.0631 11.18 26.8714 12.1204C26.6798 13.0608 26.8888 14.0281 27.4615 14.851C28.0341 15.6738 28.9335 16.2991 30.0003 16.6162V18.8896C30.0003 20.5007 29.2416 22.0459 27.8913 23.1852C26.5409 24.3245 24.7095 24.9646 22.7998 24.9646C20.8901 24.9646 19.0586 24.3245 17.7083 23.1852C16.3579 22.0459 15.5993 20.5007 15.5993 18.8896V17.5126L20.598 14.1403C21.5368 13.5094 22.2945 12.7077 22.8143 11.7951C23.3341 10.8824 23.6026 9.88241 23.5998 8.86985V2.01455C23.5998 1.65651 23.4313 1.31313 23.1312 1.05996C22.8311 0.806782 22.4241 0.664551 21.9997 0.664551H18.7995C18.3752 0.664551 17.9682 0.806782 17.6681 1.05996C17.368 1.31313 17.1994 1.65651 17.1994 2.01455C17.1994 2.37259 17.368 2.71597 17.6681 2.96915C17.9682 3.22232 18.3752 3.36455 18.7995 3.36455H20.3996V8.86985C20.4013 9.47722 20.2402 10.0771 19.9285 10.6245C19.6168 11.172 19.1625 11.653 18.5995 12.0316L13.9992 15.1366L9.40051 12.0316C8.83715 11.6532 8.38246 11.1723 8.07046 10.6248C7.75846 10.0773 7.59721 9.47735 7.59879 8.86985V3.36455H9.1989C9.62327 3.36455 10.0303 3.22232 10.3303 2.96915C10.6304 2.71597 10.799 2.37259 10.799 2.01455C10.799 1.65651 10.6304 1.31313 10.3303 1.05996C10.0303 0.806782 9.62327 0.664551 9.1989 0.664551H5.99869C5.57431 0.664551 5.16732 0.806782 4.86724 1.05996C4.56717 1.31313 4.39858 1.65651 4.39858 2.01455V8.86985C4.39567 9.88243 4.66416 10.8825 5.18398 11.7951C5.7038 12.7078 6.46149 13.5095 7.40038 14.1403L12.3991 17.5126V18.8896C12.3991 21.2168 13.4949 23.4488 15.4454 25.0944C17.3959 26.74 20.0414 27.6646 22.7998 27.6646C25.5582 27.6646 28.2037 26.74 30.1542 25.0944C32.1047 23.4488 33.2005 21.2168 33.2005 18.8896V16.6162C34.2672 16.2991 35.1666 15.6738 35.7393 14.851C36.3119 14.0281 36.5209 13.0608 36.3293 12.1204C36.1376 11.18 35.5577 10.3271 34.6922 9.71292C33.8266 9.0987 32.7314 8.76274 31.6004 8.76455ZM31.6004 14.1646C31.2839 14.1646 30.9745 14.0854 30.7114 13.937C30.4483 13.7887 30.2432 13.5779 30.1221 13.3312C30.001 13.0845 29.9693 12.8131 30.031 12.5512C30.0927 12.2893 30.2451 12.0488 30.4689 11.86C30.6927 11.6712 30.9778 11.5426 31.2882 11.4905C31.5986 11.4384 31.9203 11.4651 32.2127 11.5673C32.5051 11.6695 32.755 11.8425 32.9308 12.0645C33.1066 12.2865 33.2005 12.5475 33.2005 12.8146C33.2 13.1725 33.0313 13.5157 32.7313 13.7688C32.4314 14.0218 32.0246 14.1642 31.6004 14.1646Z" fill="black"/>
</g>
<defs>
<filter id="filter0_d_10_6265" x="0.39856" y="0.664551" width="40" height="35" filterUnits="userSpaceOnUse" color-interpolation-filters="sRGB">
<feFlood flood-opacity="0" result="BackgroundImageFix"/>
<feColorMatrix in="SourceAlpha" type="matrix" values="0 0 0 0 0 0 0 0 0 0 0 0 0 0 0 0 0 0 127 0" result="hardAlpha"/>
<feOffset dy="4"/>
<feGaussianBlur stdDeviation="2"/>
<feComposite in2="hardAlpha" operator="out"/>
<feColorMatrix type="matrix" values="0 0 0 0 0 0 0 0 0 0 0 0 0 0 0 0 0 0 0.25 0"/>
<feBlend mode="normal" in2="BackgroundImageFix" result="effect1_dropShadow_10_6265"/>
<feBlend mode="normal" in="SourceGraphic" in2="effect1_dropShadow_10_6265" result="shape"/>
</filter>
</defs>
</svg>
