<svg width="41" height="36" viewBox="0 0 41 36" fill="none" xmlns="http://www.w3.org/2000/svg">
<g filter="url(#filter0_d_10_6290)">
<path d="M31.6005 8.49355C30.4695 8.49175 29.3742 8.8277 28.5087 9.44193C27.6432 10.0561 27.0632 10.909 26.8716 11.8494C26.6799 12.7898 26.8889 13.7571 27.4616 14.58C28.0343 15.4028 28.9336 16.0281 30.0004 16.3452V18.6186C30.0004 20.2297 29.2418 21.7749 27.8914 22.9142C26.5411 24.0535 24.7096 24.6936 22.7999 24.6936C20.8902 24.6936 19.0588 24.0535 17.7084 22.9142C16.3581 21.7749 15.5994 20.2297 15.5994 18.6186V17.2416L20.5982 13.8693C21.537 13.2384 22.2946 12.4367 22.8144 11.5241C23.3342 10.6114 23.6028 9.61142 23.6 8.59885V1.74355C23.6 1.38551 23.4314 1.04213 23.1313 0.78896C22.8312 0.535786 22.4242 0.393555 21.9999 0.393555H18.7996C18.3753 0.393555 17.9683 0.535786 17.6682 0.78896C17.3681 1.04213 17.1995 1.38551 17.1995 1.74355C17.1995 2.1016 17.3681 2.44497 17.6682 2.69815C17.9683 2.95132 18.3753 3.09355 18.7996 3.09355H20.3997V8.59885C20.4014 9.20623 20.2404 9.80606 19.9286 10.3536C19.6169 10.901 19.1626 11.382 18.5996 11.7606L13.9993 14.8656L9.40063 11.7606C8.83727 11.3822 8.38258 10.9013 8.07058 10.3538C7.75858 9.80629 7.59734 9.20635 7.59891 8.59885V3.09355H9.19902C9.62339 3.09355 10.0304 2.95132 10.3305 2.69815C10.6305 2.44497 10.7991 2.1016 10.7991 1.74355C10.7991 1.38551 10.6305 1.04213 10.3305 0.78896C10.0304 0.535786 9.62339 0.393555 9.19902 0.393555H5.99881C5.57444 0.393555 5.16744 0.535786 4.86736 0.78896C4.56729 1.04213 4.39871 1.38551 4.39871 1.74355V8.59885C4.39579 9.61143 4.66428 10.6115 5.1841 11.5241C5.70392 12.4368 6.46161 13.2385 7.4005 13.8693L12.3992 17.2416V18.6186C12.3992 20.9458 13.495 23.1778 15.4455 24.8234C17.396 26.469 20.0415 27.3936 22.7999 27.3936C25.5583 27.3936 28.2038 26.469 30.1543 24.8234C32.1048 23.1778 33.2006 20.9458 33.2006 18.6186V16.3452C34.2673 16.0281 35.1667 15.4028 35.7394 14.58C36.312 13.7571 36.5211 12.7898 36.3294 11.8494C36.1378 10.909 35.5578 10.0561 34.6923 9.44193C33.8267 8.8277 32.7315 8.49175 31.6005 8.49355ZM31.6005 13.8936C31.284 13.8936 30.9746 13.8144 30.7115 13.666C30.4484 13.5177 30.2433 13.3069 30.1222 13.0602C30.0011 12.8135 29.9694 12.5421 30.0311 12.2802C30.0929 12.0183 30.2453 11.7778 30.469 11.589C30.6928 11.4002 30.9779 11.2716 31.2883 11.2195C31.5987 11.1674 31.9204 11.1941 32.2128 11.2963C32.5052 11.3985 32.7551 11.5715 32.9309 11.7935C33.1067 12.0155 33.2006 12.2766 33.2006 12.5436C33.2002 12.9015 33.0314 13.2447 32.7315 13.4978C32.4315 13.7509 32.0247 13.8932 31.6005 13.8936Z" fill="black"/>
</g>
<defs>
<filter id="filter0_d_10_6290" x="0.398682" y="0.393555" width="40" height="35" filterUnits="userSpaceOnUse" color-interpolation-filters="sRGB">
<feFlood flood-opacity="0" result="BackgroundImageFix"/>
<feColorMatrix in="SourceAlpha" type="matrix" values="0 0 0 0 0 0 0 0 0 0 0 0 0 0 0 0 0 0 127 0" result="hardAlpha"/>
<feOffset dy="4"/>
<feGaussianBlur stdDeviation="2"/>
<feComposite in2="hardAlpha" operator="out"/>
<feColorMatrix type="matrix" values="0 0 0 0 0 0 0 0 0 0 0 0 0 0 0 0 0 0 0.25 0"/>
<feBlend mode="normal" in2="BackgroundImageFix" result="effect1_dropShadow_10_6290"/>
<feBlend mode="normal" in="SourceGraphic" in2="effect1_dropShadow_10_6290" result="shape"/>
</filter>
</defs>
</svg>
