<svg width="41" height="36" viewBox="0 0 41 36" fill="none" xmlns="http://www.w3.org/2000/svg">
<g filter="url(#filter0_d_10_6320)">
<path d="M31.6002 8.49355C30.4692 8.49175 29.374 8.82771 28.5084 9.44193C27.6429 10.0562 27.063 10.909 26.8713 11.8494C26.6797 12.7898 26.8887 13.7571 27.4613 14.58C28.034 15.4028 28.9334 16.0281 30.0001 16.3452V18.6186C30.0001 20.2297 29.2415 21.7749 27.8912 22.9142C26.5408 24.0535 24.7093 24.6936 22.7997 24.6936C20.89 24.6936 19.0585 24.0535 17.7082 22.9142C16.3578 21.7749 15.5992 20.2297 15.5992 18.6186V17.2416L20.5979 13.8693C21.5367 13.2384 22.2943 12.4367 22.8142 11.5241C23.334 10.6114 23.6025 9.61142 23.5997 8.59885V1.74355C23.5997 1.38551 23.4311 1.04213 23.1311 0.78896C22.831 0.535786 22.424 0.393555 21.9996 0.393555H18.7994C18.375 0.393555 17.968 0.535786 17.668 0.78896C17.3679 1.04213 17.1993 1.38551 17.1993 1.74355C17.1993 2.1016 17.3679 2.44497 17.668 2.69815C17.968 2.95132 18.375 3.09355 18.7994 3.09355H20.3995V8.59885C20.4012 9.20623 20.2401 9.80606 19.9284 10.3536C19.6167 10.901 19.1624 11.382 18.5994 11.7606L13.9991 14.8656L9.40039 11.7606C8.83702 11.3822 8.38234 10.9013 8.07034 10.3538C7.75833 9.80629 7.59709 9.20635 7.59867 8.59885V3.09355H9.19878C9.62315 3.09355 10.0301 2.95132 10.3302 2.69815C10.6303 2.44497 10.7989 2.1016 10.7989 1.74355C10.7989 1.38551 10.6303 1.04213 10.3302 0.78896C10.0301 0.535786 9.62315 0.393555 9.19878 0.393555H5.99857C5.57419 0.393555 5.1672 0.535786 4.86712 0.78896C4.56704 1.04213 4.39846 1.38551 4.39846 1.74355V8.59885C4.39554 9.61143 4.66404 10.6115 5.18386 11.5241C5.70368 12.4368 6.46137 13.2385 7.40026 13.8693L12.399 17.2416V18.6186C12.399 20.9458 13.4948 23.1778 15.4453 24.8234C17.3958 26.469 20.0412 27.3936 22.7997 27.3936C25.5581 27.3936 28.2036 26.469 30.1541 24.8234C32.1046 23.1778 33.2003 20.9458 33.2003 18.6186V16.3452C34.2671 16.0281 35.1665 15.4028 35.7391 14.58C36.3118 13.7571 36.5208 12.7898 36.3292 11.8494C36.1375 10.909 35.5576 10.0562 34.692 9.44193C33.8265 8.82771 32.7312 8.49175 31.6002 8.49355ZM31.6002 13.8936C31.2838 13.8936 30.9744 13.8144 30.7113 13.666C30.4481 13.5177 30.243 13.3069 30.1219 13.0602C30.0008 12.8135 29.9691 12.5421 30.0309 12.2802C30.0926 12.0183 30.245 11.7778 30.4688 11.589C30.6926 11.4002 30.9777 11.2716 31.2881 11.2195C31.5985 11.1674 31.9202 11.1941 32.2126 11.2963C32.505 11.3985 32.7549 11.5715 32.9307 11.7935C33.1065 12.0155 33.2003 12.2766 33.2003 12.5436C33.1999 12.9015 33.0312 13.2447 32.7312 13.4978C32.4312 13.7509 32.0245 13.8932 31.6002 13.8936Z" fill="black"/>
</g>
<defs>
<filter id="filter0_d_10_6320" x="0.398438" y="0.393555" width="40" height="35" filterUnits="userSpaceOnUse" color-interpolation-filters="sRGB">
<feFlood flood-opacity="0" result="BackgroundImageFix"/>
<feColorMatrix in="SourceAlpha" type="matrix" values="0 0 0 0 0 0 0 0 0 0 0 0 0 0 0 0 0 0 127 0" result="hardAlpha"/>
<feOffset dy="4"/>
<feGaussianBlur stdDeviation="2"/>
<feComposite in2="hardAlpha" operator="out"/>
<feColorMatrix type="matrix" values="0 0 0 0 0 0 0 0 0 0 0 0 0 0 0 0 0 0 0.25 0"/>
<feBlend mode="normal" in2="BackgroundImageFix" result="effect1_dropShadow_10_6320"/>
<feBlend mode="normal" in="SourceGraphic" in2="effect1_dropShadow_10_6320" result="shape"/>
</filter>
</defs>
</svg>
