<svg width="40" height="35" viewBox="0 0 40 35" fill="none" xmlns="http://www.w3.org/2000/svg">
<g filter="url(#filter0_d_1_496)">
<path d="M30.8099 8.54299C29.7214 8.54126 28.6672 8.86316 27.8342 9.4517C27.0012 10.0402 26.4431 10.8574 26.2586 11.7585C26.0742 12.6596 26.2753 13.5864 26.8265 14.3749C27.3776 15.1633 28.2432 15.7625 29.2699 16.0662V18.2446C29.2699 19.7884 28.5398 21.2689 27.2402 22.3606C25.9405 23.4522 24.1779 24.0655 22.34 24.0655C20.5021 24.0655 18.7394 23.4522 17.4398 22.3606C16.1402 21.2689 15.4101 19.7884 15.4101 18.2446V16.9251L20.221 13.6939C21.1245 13.0894 21.8536 12.3213 22.3539 11.4468C22.8542 10.5723 23.1127 9.6141 23.11 8.64388V2.07528C23.11 1.73221 22.9477 1.40319 22.6589 1.16061C22.3701 0.918022 21.9784 0.781738 21.57 0.781738H18.49C18.0816 0.781738 17.6899 0.918022 17.4011 1.16061C17.1123 1.40319 16.9501 1.73221 16.9501 2.07528C16.9501 2.41835 17.1123 2.74737 17.4011 2.98995C17.6899 3.23254 18.0816 3.36882 18.49 3.36882H20.03V8.64388C20.0316 9.22586 19.8766 9.80061 19.5766 10.3252C19.2766 10.8498 18.8394 11.3107 18.2975 11.6734L13.8701 14.6485L9.44421 11.6734C8.90201 11.3108 8.46441 10.85 8.16414 10.3254C7.86386 9.80083 7.70868 9.22598 7.7102 8.64388V3.36882H9.25017C9.6586 3.36882 10.0503 3.23254 10.3391 2.98995C10.6279 2.74737 10.7901 2.41835 10.7901 2.07528C10.7901 1.73221 10.6279 1.40319 10.3391 1.16061C10.0503 0.918022 9.6586 0.781738 9.25017 0.781738H6.17022C5.76179 0.781738 5.37009 0.918022 5.08129 1.16061C4.79249 1.40319 4.63024 1.73221 4.63024 2.07528V8.64388C4.62743 9.61412 4.88584 10.5723 5.38612 11.4468C5.88641 12.3213 6.61563 13.0895 7.51924 13.6939L12.3301 16.9251V18.2446C12.3301 20.4745 13.3847 22.6131 15.2619 24.1899C17.1392 25.7667 19.6852 26.6526 22.34 26.6526C24.9948 26.6526 27.5408 25.7667 29.418 24.1899C31.2952 22.6131 32.3498 20.4745 32.3498 18.2446V16.0662C33.3765 15.7625 34.2421 15.1633 34.7932 14.3749C35.3444 13.5864 35.5455 12.6596 35.3611 11.7585C35.1766 10.8574 34.6185 10.0402 33.7855 9.4517C32.9525 8.86316 31.8983 8.54126 30.8099 8.54299ZM30.8099 13.7172C30.5053 13.7172 30.2075 13.6413 29.9543 13.4992C29.701 13.357 29.5037 13.155 29.3871 12.9186C29.2705 12.6823 29.24 12.4222 29.2995 12.1713C29.3589 11.9203 29.5056 11.6898 29.7209 11.5089C29.9363 11.328 30.2107 11.2048 30.5094 11.1549C30.8081 11.105 31.1178 11.1306 31.3992 11.2285C31.6806 11.3264 31.9211 11.4922 32.0903 11.705C32.2595 11.9177 32.3498 12.1678 32.3498 12.4236C32.3494 12.7666 32.187 13.0954 31.8983 13.3379C31.6096 13.5804 31.2182 13.7168 30.8099 13.7172Z" fill="black"/>
</g>
<defs>
<filter id="filter0_d_1_496" x="0.630219" y="0.781738" width="38.7975" height="33.8708" filterUnits="userSpaceOnUse" color-interpolation-filters="sRGB">
<feFlood flood-opacity="0" result="BackgroundImageFix"/>
<feColorMatrix in="SourceAlpha" type="matrix" values="0 0 0 0 0 0 0 0 0 0 0 0 0 0 0 0 0 0 127 0" result="hardAlpha"/>
<feOffset dy="4"/>
<feGaussianBlur stdDeviation="2"/>
<feComposite in2="hardAlpha" operator="out"/>
<feColorMatrix type="matrix" values="0 0 0 0 0 0 0 0 0 0 0 0 0 0 0 0 0 0 0.25 0"/>
<feBlend mode="normal" in2="BackgroundImageFix" result="effect1_dropShadow_1_496"/>
<feBlend mode="normal" in="SourceGraphic" in2="effect1_dropShadow_1_496" result="shape"/>
</filter>
</defs>
</svg>
