<svg width="41" height="35" viewBox="0 0 41 35" fill="none" xmlns="http://www.w3.org/2000/svg">
<g filter="url(#filter0_d_1_538)">
<path d="M31.3332 8.19331C30.2133 8.19157 29.1288 8.51508 28.2718 9.10656C27.4147 9.69803 26.8405 10.5193 26.6507 11.4249C26.4609 12.3305 26.6679 13.2619 27.2349 14.0543C27.802 14.8467 28.6925 15.4488 29.7488 15.7541V17.9433C29.7488 19.4948 28.9976 20.9828 27.6605 22.0799C26.3235 23.177 24.51 23.7933 22.619 23.7933C20.7281 23.7933 18.9146 23.177 17.5776 22.0799C16.2405 20.9828 15.4893 19.4948 15.4893 17.9433V16.6173L20.4389 13.3699C21.3685 12.7625 22.1187 11.9904 22.6334 11.1116C23.1481 10.2327 23.414 9.26977 23.4112 8.29471V1.69331C23.4112 1.34853 23.2443 1.01787 22.9472 0.774072C22.6501 0.530274 22.2471 0.393311 21.8269 0.393311H18.6581C18.2379 0.393311 17.8349 0.530274 17.5377 0.774072C17.2406 1.01787 17.0737 1.34853 17.0737 1.69331C17.0737 2.03809 17.2406 2.36875 17.5377 2.61255C17.8349 2.85635 18.2379 2.99331 18.6581 2.99331H20.2425V8.29471C20.2441 8.87959 20.0846 9.45721 19.776 9.98442C19.4673 10.5116 19.0175 10.9748 18.46 11.3393L13.9049 14.3293L9.35138 11.3393C8.79355 10.975 8.34333 10.5119 8.03439 9.98466C7.72546 9.45743 7.5658 8.87971 7.56736 8.29471V2.99331H9.15175C9.57195 2.99331 9.97495 2.85635 10.2721 2.61255C10.5692 2.36875 10.7361 2.03809 10.7361 1.69331C10.7361 1.34853 10.5692 1.01787 10.2721 0.774072C9.97495 0.530274 9.57195 0.393311 9.15175 0.393311H5.98297C5.56277 0.393311 5.15977 0.530274 4.86264 0.774072C4.56551 1.01787 4.39858 1.34853 4.39858 1.69331V8.29471C4.39569 9.26979 4.66155 10.2328 5.17626 11.1116C5.69098 11.9905 6.44123 12.7625 7.3709 13.3699L12.3205 16.6173V17.9433C12.3205 20.1844 13.4055 22.3337 15.3369 23.9184C17.2682 25.503 19.8877 26.3933 22.619 26.3933C25.3504 26.3933 27.9699 25.503 29.9012 23.9184C31.8326 22.3337 32.9176 20.1844 32.9176 17.9433V15.7541C33.9739 15.4488 34.8644 14.8467 35.4314 14.0543C35.9985 13.2619 36.2054 12.3305 36.0157 11.4249C35.8259 10.5193 35.2516 9.69803 34.3946 9.10656C33.5376 8.51508 32.4531 8.19157 31.3332 8.19331ZM31.3332 13.3933C31.0198 13.3933 30.7135 13.3171 30.4529 13.1742C30.1924 13.0314 29.9893 12.8283 29.8694 12.5908C29.7495 12.3533 29.7181 12.0919 29.7792 11.8397C29.8404 11.5875 29.9913 11.3559 30.2129 11.1741C30.4344 10.9923 30.7167 10.8684 31.0241 10.8183C31.3314 10.7681 31.65 10.7939 31.9395 10.8923C32.229 10.9907 32.4765 11.1573 32.6506 11.3711C32.8247 11.5849 32.9176 11.8362 32.9176 12.0933C32.9172 12.438 32.7501 12.7684 32.4531 13.0122C32.156 13.2559 31.7533 13.393 31.3332 13.3933Z" fill="black"/>
</g>
<defs>
<filter id="filter0_d_1_538" x="0.39856" y="0.393311" width="39.6857" height="34" filterUnits="userSpaceOnUse" color-interpolation-filters="sRGB">
<feFlood flood-opacity="0" result="BackgroundImageFix"/>
<feColorMatrix in="SourceAlpha" type="matrix" values="0 0 0 0 0 0 0 0 0 0 0 0 0 0 0 0 0 0 127 0" result="hardAlpha"/>
<feOffset dy="4"/>
<feGaussianBlur stdDeviation="2"/>
<feComposite in2="hardAlpha" operator="out"/>
<feColorMatrix type="matrix" values="0 0 0 0 0 0 0 0 0 0 0 0 0 0 0 0 0 0 0.25 0"/>
<feBlend mode="normal" in2="BackgroundImageFix" result="effect1_dropShadow_1_538"/>
<feBlend mode="normal" in="SourceGraphic" in2="effect1_dropShadow_1_538" result="shape"/>
</filter>
</defs>
</svg>
