<svg width="29" height="42" viewBox="0 0 29 42" fill="none" xmlns="http://www.w3.org/2000/svg">
<path d="M28.1483 39.2192H17.7446C18.2247 38.488 18.5449 37.5739 18.5449 36.477C18.5449 36.477 18.5449 36.477 18.5449 36.2942C20.4655 35.3801 22.3862 34.1004 23.8267 32.2722C28.6285 26.2393 28.4684 16.9157 23.5066 11.0657L24.3069 10.1516C24.467 9.96877 24.627 9.96877 24.627 9.78595L25.7474 5.94683C25.9075 5.5812 25.7474 5.21557 25.5874 5.03275L22.2262 1.19363C21.906 0.828003 21.5859 0.828003 21.2658 0.828003L17.9046 2.10771C17.7446 2.10771 17.7446 2.29053 17.5845 2.29053L7.50091 13.9907C7.18079 14.3563 7.18079 14.9048 7.50091 15.2704L8.14113 16.0017L5.10005 19.1095C4.77993 19.4752 4.77993 20.0236 5.10005 20.3892L8.46125 24.2284C8.78136 24.594 8.94142 24.594 9.10148 24.594C9.26153 24.594 9.58165 24.594 9.74171 24.4112L12.6227 21.1205L13.263 21.8518C13.423 22.0346 13.5831 22.0346 13.9032 22.0346C14.0632 22.0346 14.3834 21.8518 14.5434 21.8518L22.7063 12.5282C23.9868 13.9907 24.9471 15.8189 25.4273 17.8298C27.348 24.7768 24.3069 32.0894 18.3848 34.6488C17.5845 33.0035 16.144 31.9066 14.5434 31.9066C12.7828 31.9066 11.1822 33.1863 10.702 35.1973C8.78136 34.6488 7.02073 33.5519 5.58022 31.9066H7.34085C7.82102 31.9066 8.14113 31.541 8.14113 30.9925C8.14113 30.4441 7.82102 30.0784 7.34085 30.0784H0.938561C0.458389 30.0784 0.138275 30.4441 0.138275 30.9925C0.138275 31.541 0.458389 31.9066 0.938561 31.9066H3.33942C5.2601 34.466 7.66096 36.1114 10.542 37.0254C10.542 37.9395 10.8621 38.6708 11.3423 39.2192H0.938561C0.458389 39.2192 0.138275 39.5848 0.138275 40.1333C0.138275 40.6817 0.458389 41.0474 0.938561 41.0474H28.1483C28.6285 41.0474 28.9486 40.6817 28.9486 40.1333C28.9486 39.5848 28.6285 39.2192 28.1483 39.2192ZM9.10148 22.4002L6.86068 19.8408L9.10148 17.2814L11.3423 19.8408L9.10148 22.4002ZM21.9061 10.5172C21.746 10.5172 21.746 10.5172 21.9061 10.5172L13.7431 19.8408L9.10148 14.722L18.5449 3.93586L21.2658 2.83897L23.9868 5.94683L23.0264 9.05469L21.9061 10.5172ZM14.5434 39.2192C13.263 39.2192 12.1426 37.9395 12.1426 36.477C12.1426 35.0145 13.263 33.7348 14.5434 33.7348C15.8239 33.7348 16.9443 35.0145 16.9443 36.477C16.9443 37.9395 15.8239 39.2192 14.5434 39.2192Z" fill="black"/>
</svg>
