<svg width="33" height="30" viewBox="0 0 33 30" fill="none" xmlns="http://www.w3.org/2000/svg">
<path d="M13.2381 14.5162H11.705V13.0646C11.705 12.9362 11.6512 12.8132 11.5553 12.7224C11.4595 12.6317 11.3295 12.5807 11.194 12.5807H9.14989C9.01436 12.5807 8.88438 12.6317 8.78854 12.7224C8.69271 12.8132 8.63887 12.9362 8.63887 13.0646V14.5162H7.10581C6.97028 14.5162 6.8403 14.5672 6.74446 14.6579C6.64863 14.7486 6.59479 14.8717 6.59479 15V16.9355C6.59479 17.0639 6.64863 17.1869 6.74446 17.2777C6.8403 17.3684 6.97028 17.4194 7.10581 17.4194H8.63887V18.871C8.63887 18.9993 8.69271 19.1224 8.78854 19.2132C8.88438 19.3039 9.01436 19.3549 9.14989 19.3549H11.194C11.3295 19.3549 11.4595 19.3039 11.5553 19.2132C11.6512 19.1224 11.705 18.9993 11.705 18.871V17.4194H13.2381C13.3736 17.4194 13.5036 17.3684 13.5994 17.2777C13.6952 17.1869 13.7491 17.0639 13.7491 16.9355V15C13.7491 14.8717 13.6952 14.7486 13.5994 14.6579C13.5036 14.5672 13.3736 14.5162 13.2381 14.5162ZM12.727 16.4517H11.194C11.0584 16.4517 10.9285 16.5026 10.8326 16.5934C10.7368 16.6841 10.683 16.8072 10.683 16.9355V18.3871H9.66091V16.9355C9.66091 16.8072 9.60707 16.6841 9.51124 16.5934C9.4154 16.5026 9.28542 16.4517 9.14989 16.4517H7.61683V15.4839H9.14989C9.28542 15.4839 9.4154 15.4329 9.51124 15.3422C9.60707 15.2514 9.66091 15.1284 9.66091 15V13.5484H10.683V15C10.683 15.1284 10.7368 15.2514 10.8326 15.3422C10.9285 15.4329 11.0584 15.4839 11.194 15.4839H12.727V16.4517Z" fill="#3623FA"/>
<path d="M30.1018 18.3871H19.8813V10.1613C19.8813 10.046 19.8379 9.93442 19.7587 9.84677L16.8152 6.59516V4.83871H17.3262C17.4618 4.83871 17.5917 4.78773 17.6876 4.69699C17.7834 4.60624 17.8373 4.48317 17.8373 4.35484V0.483871C17.8373 0.35554 17.7834 0.232466 17.6876 0.141722C17.5917 0.0509791 17.4618 0 17.3262 0H3.01766C2.88213 0 2.75215 0.0509791 2.65631 0.141722C2.56048 0.232466 2.50664 0.35554 2.50664 0.483871V4.35484C2.50664 4.48317 2.56048 4.60624 2.65631 4.69699C2.75215 4.78773 2.88213 4.83871 3.01766 4.83871H3.52868V6.59516L0.5852 9.84677C0.50604 9.93442 0.462546 10.046 0.462555 10.1613V22.7419C0.462555 23.3836 0.731753 23.999 1.21093 24.4527C1.44819 24.6773 1.72986 24.8555 2.03986 24.9771C2.34986 25.0987 2.68212 25.1613 3.01766 25.1613H12.7271V28.0645C12.7271 28.5778 12.9424 29.0701 13.3257 29.4331C13.7091 29.7961 14.229 30 14.7711 30H30.1018C30.6439 30 31.1638 29.7961 31.5471 29.4331C31.9305 29.0701 32.1458 28.5778 32.1458 28.0645V20.3226C32.1458 19.8093 31.9305 19.317 31.5471 18.954C31.1638 18.591 30.6439 18.3871 30.1018 18.3871ZM3.52868 0.967742H16.8152V3.87097H3.52868V0.967742ZM15.7932 4.83871V6.29032H4.55072V4.83871H15.7932ZM4.27477 7.25806H16.0691L18.2614 9.67742H2.08249L4.27477 7.25806ZM3.01766 24.1935C2.61106 24.1935 2.22112 24.0406 1.93362 23.7684C1.64611 23.4961 1.4846 23.1269 1.4846 22.7419V22.2581H12.7271V24.1935H3.01766ZM12.7271 20.3226V21.2903H1.4846V10.6452H18.8593V18.3871H14.7711C14.229 18.3871 13.7091 18.591 13.3257 18.954C12.9424 19.317 12.7271 19.8093 12.7271 20.3226ZM31.1238 28.0645C31.1238 28.3212 31.0161 28.5673 30.8244 28.7488C30.6328 28.9303 30.3728 29.0323 30.1018 29.0323H14.7711C14.5001 29.0323 14.2401 28.9303 14.0484 28.7488C13.8568 28.5673 13.7491 28.3212 13.7491 28.0645V20.3226C13.7491 20.0659 13.8568 19.8198 14.0484 19.6383C14.2401 19.4568 14.5001 19.3548 14.7711 19.3548H30.1018C30.3728 19.3548 30.6328 19.4568 30.8244 19.6383C31.0161 19.8198 31.1238 20.0659 31.1238 20.3226V28.0645Z" fill="#3623FA"/>
<path d="M16.3042 20.3226C16.001 20.3226 15.7046 20.4077 15.4525 20.5672C15.2004 20.7267 15.0039 20.9535 14.8878 21.2187C14.7718 21.4839 14.7415 21.7758 14.8006 22.0574C14.8598 22.339 15.0058 22.5976 15.2202 22.8007C15.4346 23.0037 15.7077 23.1419 16.0051 23.1979C16.3025 23.2539 16.6108 23.2252 16.8909 23.1153C17.171 23.0055 17.4104 22.8194 17.5789 22.5807C17.7474 22.342 17.8373 22.0613 17.8373 21.7742C17.8373 21.3892 17.6758 21.02 17.3882 20.7478C17.1007 20.4755 16.7108 20.3226 16.3042 20.3226ZM16.3042 22.2581C16.2031 22.2581 16.1043 22.2297 16.0203 22.1765C15.9363 22.1234 15.8708 22.0478 15.8321 21.9594C15.7934 21.871 15.7833 21.7737 15.803 21.6798C15.8227 21.5859 15.8714 21.4997 15.9429 21.4321C16.0143 21.3644 16.1054 21.3183 16.2045 21.2996C16.3036 21.281 16.4064 21.2905 16.4998 21.3272C16.5931 21.3638 16.673 21.4258 16.7291 21.5054C16.7853 21.585 16.8152 21.6785 16.8152 21.7742C16.8152 21.9025 16.7614 22.0256 16.6656 22.1164C16.5697 22.2071 16.4397 22.2581 16.3042 22.2581ZM20.3924 20.3226C20.0892 20.3226 19.7928 20.4077 19.5407 20.5672C19.2885 20.7267 19.092 20.9535 18.976 21.2187C18.86 21.4839 18.8296 21.7758 18.8888 22.0574C18.9479 22.339 19.0939 22.5976 19.3083 22.8007C19.5227 23.0037 19.7959 23.1419 20.0933 23.1979C20.3907 23.2539 20.6989 23.2252 20.9791 23.1153C21.2592 23.0055 21.4986 22.8194 21.6671 22.5807C21.8355 22.342 21.9254 22.0613 21.9254 21.7742C21.9254 21.3892 21.7639 21.02 21.4764 20.7478C21.1889 20.4755 20.799 20.3226 20.3924 20.3226ZM20.3924 22.2581C20.2913 22.2581 20.1925 22.2297 20.1085 22.1765C20.0244 22.1234 19.9589 22.0478 19.9203 21.9594C19.8816 21.871 19.8715 21.7737 19.8912 21.6798C19.9109 21.5859 19.9596 21.4997 20.031 21.4321C20.1025 21.3644 20.1936 21.3183 20.2927 21.2996C20.3918 21.281 20.4946 21.2905 20.5879 21.3272C20.6813 21.3638 20.7611 21.4258 20.8173 21.5054C20.8734 21.585 20.9034 21.6785 20.9034 21.7742C20.9034 21.9025 20.8496 22.0256 20.7537 22.1164C20.6579 22.2071 20.5279 22.2581 20.3924 22.2581ZM24.4805 20.3226C24.1773 20.3226 23.8809 20.4077 23.6288 20.5672C23.3767 20.7267 23.1802 20.9535 23.0642 21.2187C22.9481 21.4839 22.9178 21.7758 22.9769 22.0574C23.0361 22.339 23.1821 22.5976 23.3965 22.8007C23.6109 23.0037 23.8841 23.1419 24.1815 23.1979C24.4788 23.2539 24.7871 23.2252 25.0672 23.1153C25.3473 23.0055 25.5868 22.8194 25.7552 22.5807C25.9237 22.342 26.0136 22.0613 26.0136 21.7742C26.0136 21.3892 25.8521 21.02 25.5646 20.7478C25.2771 20.4755 24.8871 20.3226 24.4805 20.3226ZM24.4805 22.2581C24.3795 22.2581 24.2807 22.2297 24.1966 22.1765C24.1126 22.1234 24.0471 22.0478 24.0084 21.9594C23.9697 21.871 23.9596 21.7737 23.9793 21.6798C23.9991 21.5859 24.0477 21.4997 24.1192 21.4321C24.1907 21.3644 24.2817 21.3183 24.3808 21.2996C24.48 21.281 24.5827 21.2905 24.6761 21.3272C24.7695 21.3638 24.8493 21.4258 24.9054 21.5054C24.9616 21.585 24.9916 21.6785 24.9916 21.7742C24.9916 21.9025 24.9377 22.0256 24.8419 22.1164C24.7461 22.2071 24.6161 22.2581 24.4805 22.2581ZM28.5687 20.3226C28.2655 20.3226 27.9691 20.4077 27.717 20.5672C27.4649 20.7267 27.2684 20.9535 27.1523 21.2187C27.0363 21.4839 27.0059 21.7758 27.0651 22.0574C27.1243 22.339 27.2703 22.5976 27.4847 22.8007C27.6991 23.0037 27.9722 23.1419 28.2696 23.1979C28.567 23.2539 28.8753 23.2252 29.1554 23.1153C29.4355 23.0055 29.6749 22.8194 29.8434 22.5807C30.0119 22.342 30.1018 22.0613 30.1018 21.7742C30.1018 21.3892 29.9402 21.02 29.6527 20.7478C29.3652 20.4755 28.9753 20.3226 28.5687 20.3226ZM28.5687 22.2581C28.4676 22.2581 28.3688 22.2297 28.2848 22.1765C28.2008 22.1234 28.1353 22.0478 28.0966 21.9594C28.0579 21.871 28.0478 21.7737 28.0675 21.6798C28.0872 21.5859 28.1359 21.4997 28.2074 21.4321C28.2788 21.3644 28.3699 21.3183 28.469 21.2996C28.5681 21.281 28.6709 21.2905 28.7643 21.3272C28.8576 21.3638 28.9375 21.4258 28.9936 21.5054C29.0498 21.585 29.0797 21.6785 29.0797 21.7742C29.0797 21.9025 29.0259 22.0256 28.9301 22.1164C28.8342 22.2071 28.7042 22.2581 28.5687 22.2581ZM16.3042 25.1613C16.001 25.1613 15.7046 25.2464 15.4525 25.4059C15.2004 25.5655 15.0039 25.7922 14.8878 26.0574C14.7718 26.3227 14.7415 26.6145 14.8006 26.8961C14.8598 27.1777 15.0058 27.4364 15.2202 27.6394C15.4346 27.8424 15.7077 27.9806 16.0051 28.0366C16.3025 28.0926 16.6108 28.0639 16.8909 27.954C17.171 27.8442 17.4104 27.6581 17.5789 27.4194C17.7474 27.1807 17.8373 26.9 17.8373 26.6129C17.8373 26.2279 17.6758 25.8587 17.3882 25.5865C17.1007 25.3142 16.7108 25.1613 16.3042 25.1613ZM16.3042 27.0968C16.2031 27.0968 16.1043 27.0684 16.0203 27.0152C15.9363 26.9621 15.8708 26.8865 15.8321 26.7981C15.7934 26.7097 15.7833 26.6124 15.803 26.5185C15.8227 26.4247 15.8714 26.3384 15.9429 26.2708C16.0143 26.2031 16.1054 26.157 16.2045 26.1383C16.3036 26.1197 16.4064 26.1293 16.4998 26.1659C16.5931 26.2025 16.673 26.2645 16.7291 26.3441C16.7853 26.4237 16.8152 26.5172 16.8152 26.6129C16.8152 26.7412 16.7614 26.8643 16.6656 26.9551C16.5697 27.0458 16.4397 27.0968 16.3042 27.0968ZM20.3924 25.1613C20.0892 25.1613 19.7928 25.2464 19.5407 25.4059C19.2885 25.5655 19.092 25.7922 18.976 26.0574C18.86 26.3227 18.8296 26.6145 18.8888 26.8961C18.9479 27.1777 19.0939 27.4364 19.3083 27.6394C19.5227 27.8424 19.7959 27.9806 20.0933 28.0366C20.3907 28.0926 20.6989 28.0639 20.9791 27.954C21.2592 27.8442 21.4986 27.6581 21.6671 27.4194C21.8355 27.1807 21.9254 26.9 21.9254 26.6129C21.9254 26.2279 21.7639 25.8587 21.4764 25.5865C21.1889 25.3142 20.799 25.1613 20.3924 25.1613ZM20.3924 27.0968C20.2913 27.0968 20.1925 27.0684 20.1085 27.0152C20.0244 26.9621 19.9589 26.8865 19.9203 26.7981C19.8816 26.7097 19.8715 26.6124 19.8912 26.5185C19.9109 26.4247 19.9596 26.3384 20.031 26.2708C20.1025 26.2031 20.1936 26.157 20.2927 26.1383C20.3918 26.1197 20.4946 26.1293 20.5879 26.1659C20.6813 26.2025 20.7611 26.2645 20.8173 26.3441C20.8734 26.4237 20.9034 26.5172 20.9034 26.6129C20.9034 26.7412 20.8496 26.8643 20.7537 26.9551C20.6579 27.0458 20.5279 27.0968 20.3924 27.0968ZM24.4805 25.1613C24.1773 25.1613 23.8809 25.2464 23.6288 25.4059C23.3767 25.5655 23.1802 25.7922 23.0642 26.0574C22.9481 26.3227 22.9178 26.6145 22.9769 26.8961C23.0361 27.1777 23.1821 27.4364 23.3965 27.6394C23.6109 27.8424 23.8841 27.9806 24.1815 28.0366C24.4788 28.0926 24.7871 28.0639 25.0672 27.954C25.3473 27.8442 25.5868 27.6581 25.7552 27.4194C25.9237 27.1807 26.0136 26.9 26.0136 26.6129C26.0136 26.2279 25.8521 25.8587 25.5646 25.5865C25.2771 25.3142 24.8871 25.1613 24.4805 25.1613ZM24.4805 27.0968C24.3795 27.0968 24.2807 27.0684 24.1966 27.0152C24.1126 26.9621 24.0471 26.8865 24.0084 26.7981C23.9697 26.7097 23.9596 26.6124 23.9793 26.5185C23.9991 26.4247 24.0477 26.3384 24.1192 26.2708C24.1907 26.2031 24.2817 26.157 24.3808 26.1383C24.48 26.1197 24.5827 26.1293 24.6761 26.1659C24.7695 26.2025 24.8493 26.2645 24.9054 26.3441C24.9616 26.4237 24.9916 26.5172 24.9916 26.6129C24.9916 26.7412 24.9377 26.8643 24.8419 26.9551C24.7461 27.0458 24.6161 27.0968 24.4805 27.0968ZM28.5687 25.1613C28.2655 25.1613 27.9691 25.2464 27.717 25.4059C27.4649 25.5655 27.2684 25.7922 27.1523 26.0574C27.0363 26.3227 27.0059 26.6145 27.0651 26.8961C27.1243 27.1777 27.2703 27.4364 27.4847 27.6394C27.6991 27.8424 27.9722 27.9806 28.2696 28.0366C28.567 28.0926 28.8753 28.0639 29.1554 27.954C29.4355 27.8442 29.6749 27.6581 29.8434 27.4194C30.0119 27.1807 30.1018 26.9 30.1018 26.6129C30.1018 26.2279 29.9402 25.8587 29.6527 25.5865C29.3652 25.3142 28.9753 25.1613 28.5687 25.1613ZM28.5687 27.0968C28.4676 27.0968 28.3688 27.0684 28.2848 27.0152C28.2008 26.9621 28.1353 26.8865 28.0966 26.7981C28.0579 26.7097 28.0478 26.6124 28.0675 26.5185C28.0872 26.4247 28.1359 26.3384 28.2074 26.2708C28.2788 26.2031 28.3699 26.157 28.469 26.1383C28.5681 26.1197 28.6709 26.1293 28.7643 26.1659C28.8576 26.2025 28.9375 26.2645 28.9936 26.3441C29.0498 26.4237 29.0797 26.5172 29.0797 26.6129C29.0797 26.7412 29.0259 26.8643 28.9301 26.9551C28.8342 27.0458 28.7042 27.0968 28.5687 27.0968ZM24.4805 14.3178C24.3183 14.4706 24.1896 14.6523 24.1017 14.8525C24.0139 15.0526 23.9687 15.2672 23.9687 15.4839C23.9687 15.7006 24.0139 15.9152 24.1017 16.1153C24.1896 16.3154 24.3183 16.4971 24.4805 16.65L24.782 16.9355C24.9435 17.0891 25.1354 17.211 25.3468 17.2942C25.5581 17.3774 25.7847 17.4202 26.0136 17.4202C26.2425 17.4202 26.4691 17.3774 26.6805 17.2942C26.8918 17.211 27.0837 17.0891 27.2452 16.9355L29.5907 14.7145C29.753 14.5617 29.8817 14.3799 29.9696 14.1798C30.0574 13.9797 30.1026 13.7651 30.1026 13.5484C30.1026 13.3317 30.0574 13.1171 29.9696 12.917C29.8817 12.7169 29.753 12.5351 29.5907 12.3823L29.2892 12.0968C28.9575 11.7969 28.5164 11.6295 28.0577 11.6295C27.599 11.6295 27.1579 11.7969 26.8261 12.0968L24.4805 14.3178ZM26.5246 16.2532C26.3851 16.3743 26.2028 16.4414 26.0136 16.4414C25.8244 16.4414 25.6421 16.3743 25.5026 16.2532L25.2011 15.9678C25.0663 15.8391 24.9906 15.6651 24.9906 15.4839C24.9906 15.3026 25.0663 15.1287 25.2011 15L26.0136 14.2307L27.3371 15.4839L26.5246 16.2532ZM28.0577 12.5807C28.2489 12.5809 28.4323 12.6522 28.5687 12.779L28.8702 13.0645C29.005 13.1932 29.0807 13.3671 29.0807 13.5484C29.0807 13.7297 29.005 13.9036 28.8702 14.0323L28.0577 14.8016L26.7341 13.5484L27.5467 12.779C27.683 12.6522 27.8665 12.5809 28.0577 12.5807ZM24.271 9.19357C24.4325 9.34718 24.6244 9.46908 24.8357 9.55226C25.0471 9.63543 25.2737 9.67825 25.5026 9.67825C25.7315 9.67825 25.9581 9.63543 26.1694 9.55226C26.3808 9.46908 26.5727 9.34718 26.7341 9.19357L27.0356 8.90808C27.1979 8.75521 27.3266 8.5735 27.4145 8.37338C27.5023 8.17325 27.5475 7.95867 27.5475 7.74195C27.5475 7.52523 27.5023 7.31065 27.4145 7.11053C27.3266 6.91041 27.1979 6.72869 27.0356 6.57582L24.6901 4.35486C24.3583 4.05493 23.9172 3.88757 23.4585 3.88757C22.9998 3.88757 22.5587 4.05493 22.2269 4.35486L21.9254 4.64034C21.7632 4.79321 21.6345 4.97493 21.5466 5.17505C21.4588 5.37517 21.4136 5.58975 21.4136 5.80647C21.4136 6.02319 21.4588 6.23777 21.5466 6.43789C21.6345 6.63801 21.7632 6.81973 21.9254 6.9726L24.271 9.19357ZM26.5246 7.74195C26.5243 7.92298 26.4491 8.0967 26.3151 8.22582L26.0136 8.51131C25.8741 8.63236 25.6918 8.69951 25.5026 8.69951C25.3134 8.69951 25.131 8.63236 24.9916 8.51131L24.179 7.74195L25.5026 6.48873L26.3151 7.25808C26.4491 7.38721 26.5243 7.56092 26.5246 7.74195ZM22.646 5.3226L22.9475 5.03711C23.0834 4.90947 23.2671 4.83784 23.4585 4.83784C23.6499 4.83784 23.8336 4.90947 23.9695 5.03711L24.782 5.80647L23.4585 7.05969L22.646 6.29034C22.5112 6.16165 22.4355 5.98773 22.4355 5.80647C22.4355 5.62521 22.5112 5.45129 22.646 5.3226Z" fill="#3623FA"/>
</svg>
