<svg width="37" height="35" viewBox="0 0 37 35" fill="none" xmlns="http://www.w3.org/2000/svg">
<path d="M18.3421 31.1913C18.1897 31.1913 18.0435 31.1323 17.9357 31.0273C17.8279 30.9223 17.7673 30.7798 17.7673 30.6313V4.13001C17.7673 3.98149 17.8279 3.83905 17.9357 3.73403C18.0435 3.62901 18.1897 3.57001 18.3421 3.57001C18.4946 3.57001 18.6408 3.62901 18.7486 3.73403C18.8563 3.83905 18.9169 3.98149 18.9169 4.13001V30.6313C18.9169 30.7798 18.8563 30.9223 18.7486 31.0273C18.6408 31.1323 18.4946 31.1913 18.3421 31.1913ZM13.2829 22.7637C13.1305 22.767 12.9829 22.7113 12.8726 22.6087C12.7624 22.506 12.6985 22.365 12.695 22.2164C12.6915 22.0679 12.7488 21.9241 12.8541 21.8167C12.9594 21.7093 13.1042 21.647 13.2567 21.6437C14.031 21.6078 14.7591 21.2743 15.2814 20.7162C15.8037 20.1581 16.0776 19.4211 16.043 18.6666C16.0395 18.5931 16.0509 18.5197 16.0766 18.4505C16.1022 18.3813 16.1416 18.3177 16.1925 18.2634C16.2433 18.2091 16.3047 18.165 16.3731 18.1338C16.4414 18.1025 16.5154 18.0847 16.5908 18.0814H16.6178C16.7657 18.0812 16.908 18.1366 17.0151 18.2361C17.1221 18.3356 17.1857 18.4715 17.1925 18.6155C17.2408 19.6668 16.8591 20.6939 16.1312 21.4714C15.4032 22.2489 14.3885 22.7134 13.3095 22.763L13.2829 22.7637ZM9.50476 17.185C9.48328 17.1851 9.4618 17.1839 9.44046 17.1815C9.28898 17.1651 9.15037 17.0908 9.05511 16.9749C8.95986 16.859 8.91575 16.711 8.93249 16.5634C8.97508 16.1915 8.94199 15.815 8.83513 15.4555C8.72826 15.096 8.54971 14.7606 8.30969 14.4684C8.06966 14.1762 7.77287 13.933 7.43628 13.7526C7.0997 13.5722 6.72992 13.4583 6.3481 13.4173C6.1988 13.3984 6.06308 13.3231 5.9701 13.2078C5.87713 13.0924 5.83432 12.9461 5.85088 12.8003C5.86745 12.6545 5.94206 12.5209 6.05868 12.4281C6.17531 12.3354 6.32463 12.2909 6.47455 12.3043C7.00632 12.3614 7.52131 12.5202 7.99008 12.7714C8.45886 13.0226 8.87222 13.3613 9.20655 13.7682C9.54088 14.1752 9.78962 14.6423 9.93855 15.1429C10.0875 15.6435 10.1337 16.1679 10.0745 16.6859C10.0591 16.8228 9.99255 16.9494 9.88745 17.0414C9.78234 17.1335 9.6461 17.1846 9.50476 17.185ZM8.19461 22.7637C7.65933 22.7649 7.1291 22.6628 6.63462 22.4631C6.14014 22.2634 5.69122 21.9701 5.31384 21.6003C5.26046 21.5482 5.21813 21.4864 5.18927 21.4184C5.16041 21.3503 5.14558 21.2775 5.14563 21.2039C5.14573 21.0552 5.20643 20.9127 5.31438 20.8077C5.42233 20.7027 5.56868 20.6437 5.72125 20.6438C5.87381 20.6439 6.02008 20.703 6.12789 20.8082C6.39934 21.073 6.72173 21.2832 7.0766 21.4265C7.43148 21.5699 7.81188 21.6436 8.19604 21.6436C8.58021 21.6436 8.96061 21.5699 9.31548 21.4265C9.67035 21.2832 9.99274 21.073 10.2642 20.8082C10.3176 20.7562 10.381 20.7149 10.4507 20.6868C10.5204 20.6587 10.5952 20.6442 10.6707 20.6442C10.7462 20.6442 10.8209 20.6587 10.8907 20.6868C10.9604 20.7149 11.0238 20.7562 11.0772 20.8082C11.1305 20.8602 11.1729 20.922 11.2018 20.9899C11.2307 21.0579 11.2455 21.1307 11.2455 21.2042C11.2455 21.2778 11.2307 21.3506 11.2018 21.4186C11.1729 21.4865 11.1305 21.5483 11.0772 21.6003C10.6995 21.9703 10.2503 22.2636 9.75551 22.4633C9.26072 22.663 8.73018 22.7651 8.19461 22.7637ZM12.7573 19.2196H12.7419C12.6664 19.2176 12.5921 19.2012 12.5232 19.1713C12.4542 19.1413 12.392 19.0984 12.34 19.0451C12.2881 18.9917 12.2475 18.9289 12.2204 18.8602C12.1934 18.7916 12.1805 18.7184 12.1826 18.6449C12.1965 18.1237 12.3158 17.6103 12.5335 17.134C12.7512 16.6578 13.0632 16.228 13.4515 15.8693C13.8398 15.5106 14.2969 15.2299 14.7966 15.0434C15.2963 14.8569 15.8288 14.7681 16.3638 14.7823C16.4393 14.7842 16.5136 14.8006 16.5826 14.8306C16.6515 14.8605 16.7138 14.9034 16.7657 14.9568C16.8177 15.0102 16.8583 15.073 16.8854 15.1417C16.9124 15.2104 16.9253 15.2836 16.9233 15.3571C16.9213 15.4307 16.9044 15.5031 16.8737 15.5703C16.843 15.6375 16.7989 15.6981 16.7441 15.7488C16.6894 15.7994 16.6249 15.839 16.5544 15.8653C16.4839 15.8917 16.4087 15.9042 16.3332 15.9023C15.9492 15.8921 15.5669 15.9557 15.2082 16.0896C14.8494 16.2234 14.5213 16.4249 14.2425 16.6824C13.9638 16.9399 13.7399 17.2485 13.5836 17.5904C13.4273 17.9323 13.3417 18.3008 13.3318 18.675C13.3277 18.8207 13.2653 18.9592 13.1581 19.0609C13.0508 19.1626 12.907 19.2195 12.7573 19.2196ZM11.5255 11.27C11.407 11.27 11.2915 11.2343 11.1946 11.1678C11.0978 11.1013 11.0244 11.0073 10.9845 10.8987C10.8039 10.408 10.7243 9.88738 10.7503 9.3667C10.7763 8.84602 10.9074 8.33543 11.136 7.86412C11.3646 7.39281 11.6864 6.97002 12.0828 6.61991C12.4792 6.26979 12.9426 5.99922 13.4464 5.82366C13.5174 5.79886 13.5928 5.78795 13.6682 5.79153C13.7436 5.79512 13.8176 5.81315 13.8858 5.84457C13.9541 5.876 14.0153 5.92022 14.066 5.9747C14.1167 6.02918 14.1559 6.09286 14.1814 6.16211C14.2068 6.23135 14.218 6.3048 14.2143 6.37826C14.2107 6.45172 14.1922 6.52376 14.1599 6.59025C14.1276 6.65675 14.0823 6.7164 14.0263 6.76581C13.9704 6.81522 13.9051 6.85341 13.834 6.87821C13.4722 7.00411 13.1395 7.19827 12.8549 7.44958C12.5702 7.70089 12.3392 8.00442 12.1751 8.3428C12.0109 8.68117 11.9169 9.04776 11.8983 9.42158C11.8798 9.7954 11.937 10.1691 12.0669 10.5214C12.0979 10.6059 12.1076 10.6965 12.0952 10.7854C12.0828 10.8744 12.0486 10.9591 11.9956 11.0325C11.9425 11.1059 11.8721 11.1658 11.7903 11.2071C11.7085 11.2485 11.6177 11.27 11.5255 11.27ZM13.4676 28.6241C12.5126 28.6223 11.5886 28.2944 10.8562 27.6973C10.1239 27.1003 9.62963 26.2719 9.4595 25.3565C9.44461 25.2835 9.4448 25.2083 9.46006 25.1354C9.47531 25.0625 9.50533 24.9933 9.54834 24.9318C9.59136 24.8704 9.64653 24.8179 9.71061 24.7774C9.77469 24.7369 9.84641 24.7093 9.92158 24.6961C9.99674 24.683 10.0738 24.6845 10.1484 24.7007C10.2229 24.7169 10.2934 24.7474 10.3557 24.7905C10.418 24.8335 10.4709 24.8882 10.5112 24.9514C10.5516 25.0145 10.5786 25.0849 10.5908 25.1584C10.7288 25.9017 11.1639 26.5614 11.8005 26.9926C12.4372 27.4238 13.2234 27.5914 13.9867 27.4586C14.061 27.4456 14.1372 27.4469 14.2109 27.4626C14.2847 27.4783 14.3545 27.508 14.4165 27.55C14.4785 27.592 14.5314 27.6454 14.5722 27.7073C14.6129 27.7692 14.6408 27.8384 14.6541 27.9108C14.6675 27.9831 14.6661 28.0574 14.65 28.1293C14.6339 28.2011 14.6034 28.2692 14.5603 28.3296C14.5172 28.3899 14.4623 28.4415 14.3988 28.4812C14.3352 28.5209 14.2643 28.5481 14.19 28.5611C13.9516 28.6028 13.7098 28.6239 13.4676 28.6241Z" fill="#3A27FF" fill-opacity="0.92"/>
<path d="M14.8348 32.0572C13.3203 32.0572 12.0845 31.5875 11.1774 31.0646C9.75479 30.2438 8.88722 29.1616 8.62677 28.8057C5.82827 27.2111 5.02465 25.2 4.84575 23.7818C4.74069 22.9393 4.81704 22.0847 5.06991 21.2726C3.35705 18.5076 3.6624 16.2914 4.23396 14.9065C4.58415 14.0641 5.11116 13.3023 5.78121 12.67C5.73308 10.7656 6.54927 9.5581 7.26165 8.8714C7.68247 8.4663 8.17171 8.1348 8.70796 7.8914C9.75623 5.5352 11.2467 3.998 13.1356 3.3211C15.9219 2.3222 18.5217 3.5892 18.6295 3.64345C18.6972 3.67668 18.7574 3.72261 18.8068 3.7786C18.8562 3.83459 18.8937 3.89954 18.9172 3.96971C18.9407 4.03988 18.9498 4.11389 18.9438 4.18747C18.9379 4.26106 18.917 4.33278 18.8825 4.3985C18.848 4.46422 18.8006 4.52264 18.7428 4.57042C18.685 4.61819 18.6182 4.65437 18.546 4.67687C18.4738 4.69937 18.3978 4.70775 18.3223 4.70152C18.2468 4.6953 18.1733 4.6746 18.1061 4.6406C18.0849 4.63045 15.8292 3.54265 13.5211 4.37635C11.8941 4.96365 10.6004 6.3626 9.67719 8.534C9.6458 8.60743 9.59871 8.67351 9.53906 8.72782C9.47941 8.78214 9.40856 8.82345 9.33124 8.849C9.22778 8.884 6.73321 9.7744 6.94193 12.8716C6.94821 12.962 6.93188 13.0525 6.89433 13.1354C6.85679 13.2183 6.79916 13.2911 6.72638 13.3476C6.71848 13.3535 5.80097 14.0826 5.28438 15.3688C4.59787 17.0744 4.90251 18.935 6.18823 20.9044C6.23815 20.9811 6.26825 21.0685 6.27594 21.159C6.28364 21.2495 6.26871 21.3405 6.23242 21.4242C6.22883 21.4319 5.81786 22.4161 5.99353 23.6946C6.22631 25.3907 7.34176 26.8047 9.30933 27.8971C9.38924 27.9412 9.45702 28.0035 9.50691 28.0787C9.51446 28.0896 10.3278 29.2845 11.7996 30.1217C13.7269 31.2175 15.8504 31.2161 18.1115 30.1182C18.2479 30.0519 18.4058 30.0411 18.5504 30.0882C18.6949 30.1354 18.8144 30.2365 18.8824 30.3695C18.9504 30.5024 18.9615 30.6562 18.9131 30.797C18.8647 30.9379 18.7609 31.0543 18.6245 31.1206C17.2234 31.801 15.9532 32.0572 14.8348 32.0572Z" fill="#3A27FF" fill-opacity="0.92"/>
<path d="M15.8461 10.8304C15.3108 10.8317 14.7805 10.7295 14.286 10.5298C13.7914 10.3301 13.3424 10.0368 12.965 9.66701C12.8572 9.56174 12.7967 9.41906 12.7969 9.27036C12.797 9.12166 12.8578 8.97911 12.9659 8.87408C13.0739 8.76905 13.2204 8.71013 13.373 8.7103C13.5256 8.71046 13.6719 8.76969 13.7797 8.87495C14.0512 9.13979 14.3735 9.34988 14.7284 9.49323C15.0832 9.63658 15.4636 9.71036 15.8477 9.71036C16.2319 9.71036 16.6122 9.63658 16.9671 9.49323C17.3219 9.34988 17.6443 9.13979 17.9157 8.87495C18.0235 8.76992 18.1697 8.71092 18.3222 8.71092C18.4746 8.71092 18.6209 8.76992 18.7287 8.87495C18.8365 8.97999 18.897 9.12244 18.897 9.27098C18.897 9.41952 18.8365 9.56197 18.7287 9.66701C18.3511 10.0371 17.9019 10.3305 17.4071 10.5302C16.9123 10.7299 16.3817 10.8319 15.8461 10.8304ZM15.8461 26.2892C15.3108 26.2905 14.7805 26.1883 14.286 25.9886C13.7914 25.7889 13.3424 25.4956 12.965 25.1258C12.8572 25.0205 12.7967 24.8779 12.7969 24.7292C12.797 24.5805 12.8578 24.4379 12.9659 24.3329C13.0739 24.2278 13.2204 24.1689 13.373 24.1691C13.5256 24.1693 13.6719 24.2285 13.7797 24.3338C14.0512 24.5986 14.3735 24.8087 14.7284 24.952C15.0832 25.0954 15.4636 25.1692 15.8477 25.1692C16.2319 25.1692 16.6122 25.0954 16.9671 24.952C17.3219 24.8087 17.6443 24.5986 17.9157 24.3338C18.0235 24.2287 18.1697 24.1697 18.3222 24.1697C18.4746 24.1697 18.6209 24.2287 18.7287 24.3338C18.8365 24.4388 18.897 24.5812 18.897 24.7298C18.897 24.8783 18.8365 25.0208 18.7287 25.1258C18.3511 25.4959 17.9019 25.7893 17.4071 25.989C16.9123 26.1887 16.3817 26.2907 15.8461 26.2892Z" fill="#3524E2"/>
<path d="M21.8494 32.0572C20.7311 32.0572 19.4612 31.801 18.0598 31.1206C17.9233 31.0543 17.8195 30.938 17.7711 30.7971C17.7227 30.6563 17.7338 30.5024 17.8018 30.3695C17.8698 30.2366 17.9893 30.1354 18.1339 30.0883C18.2784 30.0412 18.4363 30.0519 18.5728 30.1182C20.8338 31.2162 22.9573 31.2176 24.8846 30.1217C26.3575 29.2845 27.1698 28.0896 27.178 28.0777C27.228 28.0031 27.2955 27.9412 27.3749 27.8971C29.3626 26.7936 30.4802 25.3631 30.6975 23.645C30.8552 22.3948 30.4561 21.4337 30.4518 21.4242C30.4155 21.3405 30.4006 21.2496 30.4083 21.159C30.416 21.0685 30.4461 20.9812 30.496 20.9045C31.7817 18.9364 32.0864 17.0744 31.402 15.3696C30.8854 14.0823 29.9679 13.3543 29.9586 13.3469C29.8858 13.2908 29.8281 13.2183 29.7905 13.1356C29.753 13.0529 29.7367 12.9625 29.743 12.8723C29.9535 9.74821 27.3796 8.85851 27.3537 8.84976C27.2764 8.82421 27.2055 8.7829 27.1459 8.72858C27.0862 8.67427 27.0391 8.6082 27.0078 8.53476C26.0813 6.35846 24.784 4.95811 23.1517 4.37291C20.8327 3.54166 18.6004 4.63051 18.5781 4.64136C18.4423 4.70899 18.2845 4.72128 18.1394 4.67553C17.9943 4.62978 17.8737 4.52974 17.8043 4.39741C17.7349 4.26509 17.7223 4.11132 17.7693 3.96994C17.8162 3.82856 17.9189 3.71114 18.0547 3.64351C18.1625 3.58926 20.7623 2.32226 23.5486 3.32116C25.4375 3.99806 26.9255 5.53526 27.9763 7.89076C28.5125 8.13416 29.0018 8.46566 29.4226 8.87076C30.135 9.55711 30.9515 10.7646 30.903 12.67C31.5732 13.3027 32.1002 14.0648 32.4503 14.9076C33.0218 16.2925 33.3272 18.5073 31.6143 21.2737C31.8672 22.0858 31.9435 22.9404 31.8385 23.7829C31.6589 25.1993 30.856 27.2129 28.0585 28.8068C27.797 29.1627 26.9294 30.2449 25.5079 31.0657C24.5998 31.5875 23.3636 32.0572 21.8494 32.0572Z" fill="#3524E2"/>
<path d="M18.3421 31.1913C18.1897 31.1913 18.0435 31.1323 17.9357 31.0273C17.8279 30.9223 17.7673 30.7798 17.7673 30.6313V4.13001C17.7673 3.98149 17.8279 3.83905 17.9357 3.73403C18.0435 3.62901 18.1897 3.57001 18.3421 3.57001C18.4946 3.57001 18.6408 3.62901 18.7486 3.73403C18.8564 3.83905 18.9169 3.98149 18.9169 4.13001V30.6313C18.9169 30.7798 18.8564 30.9223 18.7486 31.0273C18.6408 31.1323 18.4946 31.1913 18.3421 31.1913ZM23.4013 22.7637H23.3747C22.2956 22.7141 21.2806 22.2495 20.5527 21.4717C19.8247 20.694 19.4431 19.6666 19.4917 18.6151C19.4987 18.4666 19.566 18.3269 19.6787 18.2267C19.7915 18.1265 19.9404 18.074 20.0929 18.0808C20.2453 18.0877 20.3887 18.1532 20.4916 18.263C20.5944 18.3729 20.6483 18.518 20.6413 18.6666C20.6064 19.4213 20.8803 20.1587 21.4028 20.7169C21.9253 21.2752 22.6537 21.6087 23.4283 21.6444C23.5807 21.6477 23.7255 21.71 23.8309 21.8174C23.9362 21.9248 23.9934 22.0686 23.9899 22.2171C23.9865 22.3657 23.9226 22.5067 23.8123 22.6094C23.7021 22.712 23.5545 22.7677 23.402 22.7644L23.4013 22.7637ZM27.1795 17.185C27.0381 17.1848 26.9018 17.1339 26.7966 17.0419C26.6913 16.95 26.6246 16.8235 26.609 16.6866C26.5496 16.1684 26.5957 15.6438 26.7447 15.1429C26.8936 14.642 27.1424 14.1747 27.4769 13.7676C27.8114 13.3605 28.225 13.0216 28.6941 12.7704C29.1631 12.5192 29.6784 12.3606 30.2104 12.3036C30.3603 12.2902 30.5097 12.3347 30.6263 12.4274C30.7429 12.5202 30.8175 12.6538 30.8341 12.7996C30.8506 12.9454 30.8078 13.0917 30.7149 13.2071C30.6219 13.3224 30.4862 13.3977 30.3369 13.4166C29.9552 13.4578 29.5856 13.5719 29.2492 13.7524C28.9129 13.9328 28.6163 14.1761 28.3764 14.4683C28.1366 14.7604 27.9582 15.0958 27.8514 15.4552C27.7447 15.8145 27.7117 16.1909 27.7543 16.5627C27.771 16.7103 27.7269 16.8583 27.6316 16.9742C27.5364 17.0901 27.3978 17.1644 27.2463 17.1808C27.2241 17.1835 27.2018 17.1849 27.1795 17.185ZM28.4896 22.7637C27.9543 22.7649 27.424 22.6627 26.9295 22.463C26.435 22.2633 25.986 21.9701 25.6085 21.6003C25.5007 21.4952 25.4401 21.3528 25.4401 21.2042C25.4401 21.0557 25.5007 20.9132 25.6085 20.8082C25.7163 20.7032 25.8625 20.6442 26.015 20.6442C26.1675 20.6442 26.3137 20.7032 26.4215 20.8082C26.6929 21.073 27.0153 21.2832 27.3702 21.4265C27.7251 21.5699 28.1055 21.6436 28.4896 21.6436C28.8738 21.6436 29.2542 21.5699 29.6091 21.4265C29.9639 21.2832 30.2863 21.073 30.5578 20.8082C30.6661 20.7057 30.8115 20.6489 30.9625 20.65C31.1135 20.6511 31.2579 20.7101 31.3647 20.8141C31.4714 20.9182 31.5319 21.0589 31.5329 21.206C31.534 21.3531 31.4756 21.4948 31.3704 21.6003C30.993 21.9701 30.5441 22.2634 30.0496 22.4631C29.5551 22.6628 29.0249 22.7649 28.4896 22.7637ZM23.9269 19.2196C23.7771 19.2196 23.6332 19.1627 23.5258 19.0609C23.4185 18.9591 23.3561 18.8205 23.3521 18.6746C23.3422 18.3005 23.2566 17.9319 23.1003 17.59C22.944 17.2481 22.7201 16.9396 22.4413 16.6821C22.1626 16.4245 21.8344 16.2231 21.4757 16.0892C21.117 15.9554 20.7347 15.8917 20.3506 15.9019C20.2752 15.9039 20.2 15.8913 20.1295 15.865C20.059 15.8386 19.9945 15.799 19.9397 15.7484C19.8849 15.6978 19.8409 15.6371 19.8102 15.57C19.7794 15.5028 19.7626 15.4303 19.7606 15.3568C19.7586 15.2832 19.7715 15.21 19.7985 15.1413C19.8255 15.0727 19.8662 15.0098 19.9181 14.9564C19.9701 14.9031 20.0323 14.8602 20.1013 14.8302C20.1703 14.8003 20.2446 14.7839 20.3201 14.7819C20.8551 14.7677 21.3877 14.8565 21.8875 15.043C22.3872 15.2295 22.8444 15.5102 23.2327 15.8689C23.6211 16.2277 23.9331 16.6575 24.1508 17.1339C24.3685 17.6102 24.4878 18.1236 24.5017 18.6449C24.5037 18.7184 24.4908 18.7916 24.4638 18.8602C24.4368 18.9289 24.3961 18.9917 24.3442 19.0451C24.2923 19.0984 24.23 19.1413 24.1611 19.1713C24.0921 19.2012 24.0178 19.2176 23.9423 19.2196H23.9269ZM25.1587 11.27C25.0665 11.2701 24.9757 11.2485 24.8938 11.2071C24.812 11.1658 24.7416 11.1059 24.6885 11.0324C24.6354 10.959 24.6012 10.8742 24.5888 10.7852C24.5765 10.6962 24.5862 10.6056 24.6174 10.521C24.7472 10.1688 24.8045 9.79505 24.7859 9.42123C24.7673 9.04741 24.6733 8.68082 24.5092 8.34245C24.345 8.00407 24.114 7.70054 23.8294 7.44923C23.5447 7.19792 23.212 7.00376 22.8503 6.87786C22.7792 6.85306 22.7138 6.81487 22.6579 6.76546C22.602 6.71605 22.5566 6.6564 22.5243 6.5899C22.4921 6.52341 22.4736 6.45137 22.4699 6.37791C22.4662 6.30445 22.4774 6.231 22.5029 6.16176C22.5283 6.09251 22.5675 6.02883 22.6182 5.97435C22.6689 5.91987 22.7302 5.87565 22.7984 5.84422C22.8667 5.8128 22.9406 5.79477 23.016 5.79118C23.0914 5.78759 23.1668 5.79851 23.2379 5.82331C23.7417 5.99887 24.205 6.26944 24.6015 6.61955C24.9979 6.96967 25.3196 7.39246 25.5482 7.86377C25.7769 8.33508 25.9079 8.84567 25.9339 9.36635C25.9599 9.88703 25.8804 10.4076 25.6998 10.8983C25.6599 11.007 25.5865 11.1011 25.4897 11.1677C25.3928 11.2342 25.2772 11.2699 25.1587 11.27ZM23.2167 28.6241C22.9744 28.6239 22.7327 28.6028 22.4942 28.5611C22.4199 28.5481 22.349 28.5209 22.2855 28.4812C22.2219 28.4415 22.167 28.3899 22.1239 28.3296C22.0808 28.2692 22.0504 28.2011 22.0343 28.1293C22.0182 28.0574 22.0167 27.9831 22.0301 27.9108C22.0435 27.8384 22.0713 27.7692 22.1121 27.7073C22.1528 27.6454 22.2057 27.592 22.2677 27.55C22.3297 27.508 22.3996 27.4783 22.4733 27.4626C22.5471 27.4469 22.6233 27.4456 22.6976 27.4586C23.4609 27.5914 24.2471 27.4238 24.8837 26.9926C25.5204 26.5614 25.9554 25.9017 26.0935 25.1584C26.1056 25.0849 26.1327 25.0145 26.173 24.9514C26.2134 24.8882 26.2662 24.8335 26.3285 24.7905C26.3908 24.7474 26.4613 24.7169 26.5359 24.7007C26.6104 24.6845 26.6875 24.683 26.7627 24.6961C26.8378 24.7093 26.9095 24.7369 26.9736 24.7774C27.0377 24.8179 27.0929 24.8704 27.1359 24.9318C27.1789 24.9933 27.2089 25.0625 27.2242 25.1354C27.2394 25.2083 27.2396 25.2835 27.2247 25.3565C27.0545 26.2719 26.5603 27.1002 25.8279 27.6973C25.0956 28.2943 24.1716 28.6223 23.2167 28.6241Z" fill="#5D51D8" fill-opacity="0.92"/>
<path d="M20.8381 10.8304C20.3029 10.8317 19.7726 10.7295 19.2781 10.5298C18.7837 10.3301 18.3347 10.0369 17.9574 9.667C17.8496 9.56196 17.789 9.41951 17.789 9.27097C17.789 9.12243 17.8496 8.97998 17.9574 8.87495C18.0652 8.76991 18.2114 8.71091 18.3639 8.71091C18.5163 8.71091 18.6625 8.76991 18.7703 8.87495C19.0418 9.13978 19.3641 9.34987 19.719 9.49322C20.0738 9.63657 20.4542 9.71035 20.8383 9.71035C21.2225 9.71035 21.6028 9.63657 21.9577 9.49322C22.3125 9.34987 22.6349 9.13978 22.9063 8.87495C22.9597 8.82294 23.023 8.78169 23.0928 8.75354C23.1625 8.72539 23.2373 8.71091 23.3128 8.71091C23.3883 8.71091 23.463 8.72539 23.5328 8.75354C23.6025 8.78169 23.6659 8.82294 23.7193 8.87495C23.7726 8.92695 23.815 8.98869 23.8439 9.05664C23.8728 9.12459 23.8876 9.19742 23.8876 9.27097C23.8876 9.34452 23.8728 9.41735 23.8439 9.4853C23.815 9.55325 23.7726 9.61499 23.7193 9.667C23.3418 10.0368 22.8928 10.3301 22.3983 10.5298C21.9037 10.7295 21.3735 10.8316 20.8381 10.8304ZM20.8381 26.2892C20.3029 26.2905 19.7726 26.1883 19.2781 25.9886C18.7837 25.7889 18.3347 25.4957 17.9574 25.1258C17.8496 25.0208 17.789 24.8783 17.789 24.7298C17.789 24.5812 17.8496 24.4388 17.9574 24.3337C18.0652 24.2287 18.2114 24.1697 18.3639 24.1697C18.5163 24.1697 18.6625 24.2287 18.7703 24.3337C19.0418 24.5986 19.3641 24.8087 19.719 24.952C20.0738 25.0954 20.4542 25.1692 20.8383 25.1692C21.2225 25.1692 21.6028 25.0954 21.9577 24.952C22.3125 24.8087 22.6349 24.5986 22.9063 24.3337C23.0141 24.2287 23.1603 24.1697 23.3128 24.1697C23.4652 24.1697 23.6115 24.2287 23.7193 24.3337C23.8271 24.4388 23.8876 24.5812 23.8876 24.7298C23.8876 24.8783 23.8271 25.0208 23.7193 25.1258C23.3418 25.4956 22.8928 25.7889 22.3983 25.9886C21.9037 26.1883 21.3735 26.2904 20.8381 26.2892Z" fill="#3524E2"/>
</svg>
