<svg width="30" height="28" viewBox="0 0 30 28" fill="none" xmlns="http://www.w3.org/2000/svg">
<g clip-path="url(#clip0_1_374)">
<path fill-rule="evenodd" clip-rule="evenodd" d="M29.4339 0H0.694534V28H29.4339V0ZM4.28696 5.25C4.28696 4.2835 5.09115 3.5 6.08317 3.5H24.0453C25.0373 3.5 25.8415 4.2835 25.8415 5.25V22.75C25.8415 23.7165 25.0373 24.5 24.0453 24.5H6.08317C5.09115 24.5 4.28696 23.7165 4.28696 22.75V5.25ZM24.0453 14C24.0453 14 19.1057 8.75 15.0879 8.75C11.07 8.75 6.08317 14 6.08317 14C6.08317 14 11.07 19.25 15.0879 19.25C19.1057 19.25 24.0453 14 24.0453 14ZM9.80953 12.2993C8.99117 12.9134 8.28478 13.5304 7.77741 14C8.28478 14.4696 8.99117 15.0866 9.80953 15.7007C10.1185 15.9326 10.4403 16.1617 10.7706 16.3809C10.3595 15.6788 10.1246 14.8661 10.1246 14C10.1246 13.1339 10.3595 12.3212 10.7706 11.6191C10.4403 11.8383 10.1185 12.0674 9.80953 12.2993ZM19.3384 11.586C19.7615 12.2956 20.0038 13.1202 20.0038 14C20.0038 14.8798 19.7615 15.7044 19.3384 16.414C19.6828 16.1855 20.0182 15.9458 20.3394 15.7031C21.1537 15.0879 21.8555 14.4698 22.3586 14C21.8555 13.5302 21.1537 12.9121 20.3394 12.2969C20.0182 12.0542 19.6828 11.8145 19.3384 11.586ZM18.8063 14C18.8063 16.0135 17.1309 17.6458 15.0642 17.6458C12.9975 17.6458 11.3221 16.0135 11.3221 14C11.3221 11.9864 12.9975 10.3542 15.0642 10.3542C17.1309 10.3542 18.8063 11.9864 18.8063 14ZM15.0642 16.1875C16.3043 16.1875 17.3095 15.2081 17.3095 14C17.3095 13.4568 17.1063 12.9599 16.7699 12.5774C16.8274 12.6741 16.8604 12.7864 16.8604 12.9062C16.8604 13.2687 16.5588 13.5625 16.1869 13.5625C15.8149 13.5625 15.5133 13.2687 15.5133 12.9062C15.5133 12.5438 15.8149 12.25 16.1869 12.25C16.3098 12.25 16.4252 12.2821 16.5244 12.3382C16.1318 12.0105 15.6218 11.8125 15.0642 11.8125C13.8242 11.8125 12.819 12.7919 12.819 14C12.819 15.2081 13.8242 16.1875 15.0642 16.1875Z" fill="#5D51D8" fill-opacity="0.77"/>
</g>
<defs>
<clipPath id="clip0_1_374">
<rect width="28.7394" height="28" fill="white" transform="translate(0.694534)"/>
</clipPath>
</defs>
</svg>
