<svg width="29" height="27" viewBox="0 0 29 27" fill="none" xmlns="http://www.w3.org/2000/svg">
<g clip-path="url(#clip0_1_392)">
<path fill-rule="evenodd" clip-rule="evenodd" d="M28.6669 0H0.953888V27H28.6669V0ZM6.15007 3.375C5.19348 3.375 4.41801 4.13052 4.41801 5.0625V21.9375C4.41801 22.8695 5.19348 23.625 6.15007 23.625H23.4707C24.4273 23.625 25.2027 22.8695 25.2027 21.9375V5.0625C25.2027 4.13052 24.4273 3.375 23.4707 3.375H6.15007ZM14.8104 10.6875C16.2453 10.6875 17.4085 9.55423 17.4085 8.15625C17.4085 6.75827 16.2453 5.625 14.8104 5.625C13.3755 5.625 12.2123 6.75827 12.2123 8.15625C12.2123 9.55423 13.3755 10.6875 14.8104 10.6875ZM9.03684 11.8125C8.71797 11.8125 8.45948 12.0643 8.45948 12.375V20.8125C8.45948 21.1232 8.71797 21.375 9.03684 21.375H11.9236C11.9236 21.0414 12.0759 20.7413 12.2472 20.5086C12.4246 20.2677 12.6615 20.0453 12.9205 19.8553C13.2915 19.5832 13.7542 19.3444 14.233 19.2175V17.5199H13.1938C12.5064 17.5199 11.8458 17.7437 11.3396 17.9843C11.0899 18.1029 10.8864 18.2215 10.7468 18.3094C10.6772 18.3533 10.624 18.3892 10.5894 18.4132C10.5786 18.4207 10.5697 18.4271 10.5626 18.4321C10.5583 18.4351 10.5548 18.4376 10.5519 18.4397L10.5444 18.4453C10.5444 18.4453 10.5444 18.4452 10.1915 18C9.83867 17.5548 9.8389 17.5546 9.8389 17.5546L9.83994 17.5539L9.84167 17.5525L9.84681 17.5488L9.86303 17.5368C9.87654 17.5271 9.8953 17.5137 9.91909 17.4972C9.96661 17.4642 10.0343 17.4186 10.1198 17.3647C10.2905 17.2572 10.5345 17.1151 10.8333 16.9732C11.424 16.6924 12.2645 16.3949 13.1938 16.3949H14.233V15.1875H13.5979C13.0785 15.1875 12.5831 15.309 12.2086 15.437C12.0235 15.5003 11.8733 15.5633 11.7711 15.6097C11.7201 15.6327 11.6814 15.6515 11.6568 15.6638C11.6444 15.67 11.6356 15.6746 11.6305 15.6772L11.6264 15.6793C11.6264 15.6793 11.6266 15.6792 11.3463 15.1875C11.0659 14.6958 11.0661 14.6957 11.0661 14.6957L11.067 14.6951L11.0686 14.6943L11.0729 14.692L11.086 14.6851C11.0967 14.6796 11.1114 14.672 11.1298 14.6628C11.1667 14.6444 11.2187 14.6192 11.2841 14.5896C11.4147 14.5304 11.6 14.4528 11.8263 14.3755C12.2745 14.2223 12.9049 14.0625 13.5979 14.0625H14.233V12.9375H15.3877V14.0625H15.8496C16.4565 14.0625 17.1287 14.2231 17.6192 14.3679C17.8709 14.4422 18.0878 14.5164 18.2423 14.5721C18.3196 14.6001 18.3818 14.6235 18.4252 14.6402C18.447 14.6486 18.4641 14.6553 18.4761 14.6601L18.4903 14.6657L18.4944 14.6674L18.4964 14.6682C18.4964 14.6682 18.4965 14.6683 18.2745 15.1875C18.0524 15.7067 18.0526 15.7068 18.0526 15.7068L18.0507 15.706L18.0412 15.7023L18.0337 15.6993L18.0006 15.6864C17.9642 15.6724 17.91 15.6519 17.8412 15.6271C17.7034 15.5774 17.509 15.5109 17.2843 15.4446C16.8222 15.3082 16.282 15.1875 15.8496 15.1875H15.3877V16.3949H16.196C17.0096 16.3949 17.9066 16.6936 18.5564 16.9603C18.8906 17.0975 19.1785 17.2343 19.3832 17.337C19.4857 17.3885 19.5679 17.4316 19.6253 17.4623C19.6539 17.4777 19.6764 17.4899 19.6922 17.4986L19.7107 17.5088L19.7176 17.5127L19.7182 17.513C19.7182 17.513 19.7186 17.5133 19.4292 18C19.1398 18.4867 19.1399 18.4868 19.1399 18.4868L19.1371 18.4852L19.1241 18.478C19.1121 18.4714 19.0935 18.4612 19.0689 18.4481C19.0199 18.4218 18.9469 18.3835 18.8546 18.3372C18.6695 18.2443 18.409 18.1205 18.1081 17.9971C17.4877 17.7424 16.7681 17.5199 16.196 17.5199H15.3877V19.1992C15.8642 19.317 16.3238 19.5611 16.6867 19.831C16.9488 20.0261 17.1885 20.2548 17.3679 20.4996C17.5397 20.7339 17.6971 21.039 17.6971 21.375H20.5839C20.9028 21.375 21.1613 21.1232 21.1613 20.8125V12.375C21.1613 12.0643 20.9028 11.8125 20.5839 11.8125H9.03684ZM16.5424 21.375C16.5421 21.3719 16.5399 21.3536 16.5253 21.3182C16.508 21.2761 16.4773 21.2203 16.4283 21.1535C16.3294 21.0186 16.1773 20.8676 15.9858 20.7252C15.5952 20.4346 15.1495 20.2573 14.8299 20.2502C14.458 20.2816 13.995 20.4753 13.615 20.754C13.4261 20.8927 13.2795 21.0367 13.1855 21.1643C13.139 21.2275 13.1104 21.2798 13.0944 21.3192C13.0794 21.3559 13.0784 21.3737 13.0783 21.375H16.5424Z" fill="#5D51D8" fill-opacity="0.77"/>
</g>
<defs>
<clipPath id="clip0_1_392">
<rect width="27.713" height="27" fill="white" transform="translate(0.953888)"/>
</clipPath>
</defs>
</svg>
