<svg width="19" height="19" viewBox="0 0 19 19" fill="none" xmlns="http://www.w3.org/2000/svg">
<path d="M13.6871 12.0653H12.8235L12.5174 11.7871C13.8292 10.3447 14.507 8.37678 14.1353 6.28528C13.6215 3.42105 11.0852 1.13378 8.02421 0.783483C3.39988 0.247727 -0.491989 3.91559 0.0764861 8.27375C0.448181 11.1586 2.87513 13.5489 5.91429 14.0331C8.13353 14.3834 10.2216 13.7446 11.7521 12.5083L12.0473 12.7968V13.6107L16.6935 17.9895C17.1417 18.4119 17.8741 18.4119 18.3224 17.9895C18.7706 17.567 18.7706 16.8767 18.3224 16.4543L13.6871 12.0653ZM7.12777 12.0653C4.40564 12.0653 2.20827 9.99435 2.20827 7.42891C2.20827 4.86347 4.40564 2.79257 7.12777 2.79257C9.84989 2.79257 12.0473 4.86347 12.0473 7.42891C12.0473 9.99435 9.84989 12.0653 7.12777 12.0653Z" fill="#EBEFFA"/>
</svg>
