<svg width="42" height="40" viewBox="0 0 42 40" fill="none" xmlns="http://www.w3.org/2000/svg">
<path fill-rule="evenodd" clip-rule="evenodd" d="M30.5168 21.2435C30.334 22.0363 30.2076 22.6811 30.0302 23.1712C29.9213 23.4715 29.8121 23.7035 29.5981 23.8303C29.4624 23.9106 29.291 23.942 29.0748 23.9471C28.9049 23.9512 28.7437 24.0209 28.6265 24.1408C28.5094 24.2606 28.4458 24.4209 28.4499 24.5864C28.4541 24.7519 28.5256 24.9089 28.6486 25.0231C28.7716 25.1372 28.9362 25.1992 29.106 25.1952C30.128 25.1709 30.6763 24.7647 31.0587 24.0082C31.347 23.4378 31.5169 22.5999 31.7708 21.5002C31.8565 21.1293 31.8689 20.8538 31.8356 20.6635C31.7859 20.3804 31.6492 20.194 31.4704 20.0683C31.3032 19.9507 31.0735 19.8751 30.7604 19.9035C30.4413 19.9327 29.9371 20.1079 29.2296 20.4027C29.0735 20.4679 28.9503 20.5909 28.8871 20.7445C28.8239 20.8982 28.826 21.07 28.8927 21.2222C28.9597 21.3743 29.0858 21.4943 29.2436 21.5559C29.4013 21.6175 29.5776 21.6156 29.7338 21.5506C30.0414 21.4223 30.3011 21.3173 30.5168 21.2435ZM10.1233 21.2435C10.339 21.3173 10.5987 21.4223 10.9062 21.5506C11.0625 21.6156 11.2388 21.6175 11.3965 21.556C11.5542 21.4944 11.6803 21.3743 11.7472 21.2222C11.814 21.07 11.816 20.8982 11.7528 20.7445C11.6896 20.5909 11.5664 20.4679 11.4103 20.4027C10.7028 20.1079 10.1988 19.9327 9.87953 19.9035C9.56646 19.8751 9.33688 19.9507 9.16958 20.0683C8.99075 20.194 8.8542 20.3804 8.80453 20.6635C8.77117 20.8538 8.78347 21.1293 8.86912 21.5002C9.12299 22.5999 9.2929 23.4378 9.58122 24.0082C9.96364 24.7647 10.512 25.1709 11.5339 25.1952C11.7038 25.1992 11.8683 25.1372 11.9913 25.0231C12.1143 24.9089 12.1858 24.7519 12.1901 24.5864C12.1941 24.4209 12.1306 24.2606 12.0134 24.1408C11.8962 24.0209 11.735 23.9512 11.5651 23.9471C11.3489 23.942 11.1775 23.9106 11.0419 23.8303C10.828 23.7035 10.7186 23.4715 10.6099 23.1712C10.4323 22.6811 10.3059 22.0363 10.1233 21.2435Z" fill="#3A28FF"/>
<path fill-rule="evenodd" clip-rule="evenodd" d="M28.8346 18.3258C28.8346 18.3258 28.7611 20.862 28.3561 23.4265C28.0968 25.0682 27.7142 26.727 27.0986 27.6792C25.2642 30.5164 23.4784 31.9165 20.3258 32.0391C17.1612 31.9182 15.4095 30.4924 13.5372 27.6729C12.9065 26.7228 12.5182 25.1308 12.2588 23.5687C11.8535 21.1278 11.7901 18.7447 11.7901 18.7447C11.7856 18.5792 11.7139 18.4222 11.5907 18.3083C11.4675 18.1943 11.3029 18.1326 11.1331 18.1368C10.9632 18.1411 10.8021 18.211 10.6851 18.331C10.5681 18.4511 10.5049 18.6114 10.5092 18.7769C10.5092 18.7769 10.599 22.1384 11.2364 25.0347C11.5227 26.3363 11.9259 27.5444 12.4613 28.351C14.6102 31.5871 16.6627 33.1562 20.2961 33.2878C20.312 33.2882 20.328 33.2882 20.3438 33.2878C23.98 33.1561 26.0728 31.6082 28.1828 28.3447C28.7033 27.5395 29.0994 26.2935 29.3823 24.9381C30.0115 21.9233 30.1155 18.3612 30.1155 18.3612C30.1202 18.1957 30.0573 18.0352 29.9406 17.9149C29.8239 17.7946 29.663 17.7243 29.4932 17.7195C29.3234 17.7149 29.1586 17.7762 29.0351 17.8899C28.9116 18.0036 28.8395 18.1604 28.8346 18.3258Z" fill="#3A28FF"/>
<path fill-rule="evenodd" clip-rule="evenodd" d="M15.628 7.48045C9.95949 9.15311 9.01719 13.867 9.3724 17.317C9.46881 18.2526 9.66164 19.0927 9.87799 19.7488C9.91547 19.862 9.98535 19.9624 10.0794 20.0382C10.1735 20.1141 10.2878 20.1621 10.409 20.1768C10.5301 20.1915 10.6531 20.1722 10.7633 20.1211C10.8736 20.07 10.9666 19.9893 11.0314 19.8885C11.6207 18.9699 12.6275 18.3561 13.7996 17.8721C15.7337 17.0734 18.1106 16.6428 20.0902 16.0526C21.2792 15.698 22.3319 15.2824 23.101 14.727C23.4552 14.4713 23.7539 14.1867 23.9872 13.8671C24.0402 13.9507 24.0945 14.0319 24.1505 14.1109C24.247 14.2471 24.3951 14.3404 24.5622 14.3703C24.7292 14.4002 24.9017 14.3643 25.0416 14.2704C25.1814 14.1764 25.2772 14.0321 25.3079 13.8693C25.3386 13.7065 25.3017 13.5384 25.2053 13.4021C24.9309 13.0144 24.703 12.5563 24.5405 11.9933C24.4992 11.8501 24.4069 11.7259 24.28 11.6432C24.1532 11.5605 24.0002 11.5246 23.8486 11.5421C23.697 11.5595 23.5568 11.6291 23.4532 11.7383C23.3496 11.8475 23.2894 11.9892 23.2835 12.1378C23.2557 12.8231 22.8933 13.323 22.338 13.724C21.6699 14.2064 20.7479 14.5507 19.7152 14.8587C17.6956 15.461 15.2727 15.9077 13.2995 16.7227C12.3374 17.12 11.4798 17.6061 10.802 18.2229C10.7345 17.8819 10.6829 17.538 10.6474 17.1924C10.3305 14.1152 11.174 9.85213 16.5048 8.53872C16.5048 8.53872 17.1672 8.39236 16.9646 7.76524C16.7708 7.09183 17.1431 6.55565 17.7096 6.16854C18.4092 5.69033 19.4001 5.42442 20.32 5.41348C21.2398 5.42442 22.2307 5.69033 22.9303 6.16854C23.4968 6.55565 23.2282 7.09183 23.0346 7.76524C22.9805 7.95326 23.6606 8.15505 23.7818 8.31071C23.8706 8.42498 23.9972 8.50589 24.1402 8.53977L24.1353 8.53872C24.9493 8.73932 25.6608 9.00659 26.28 9.32839C26.43 9.40624 26.6055 9.42291 26.7681 9.37474C26.9307 9.32656 27.0669 9.21748 27.147 9.07146C27.2268 8.92536 27.2439 8.75436 27.1944 8.59601C27.1449 8.43767 27.033 8.30493 26.8831 8.22696C26.3266 7.93767 25.7051 7.68599 25.0119 7.48105C25.0417 6.74397 24.7268 6.09962 24.1889 5.57258C23.3048 4.70606 21.7546 4.18007 20.3269 4.16509C20.3223 4.16494 20.3177 4.16494 20.313 4.16509C18.8853 4.18007 17.3352 4.70606 16.451 5.57258C15.9133 6.09947 15.5983 6.74367 15.628 7.48045ZM15.1627 21.0431C15.8711 20.5889 17.0145 20.5455 17.7694 21.0397C17.9104 21.132 18.0833 21.166 18.25 21.1341C18.4167 21.1023 18.5636 21.0073 18.6585 20.87C18.7532 20.7325 18.788 20.5641 18.7554 20.4017C18.7227 20.2392 18.6252 20.0961 18.4843 20.0036C17.3182 19.2401 15.5525 19.2987 14.4583 20.0003C14.3212 20.0933 14.2268 20.2348 14.1952 20.3946C14.1636 20.5545 14.1973 20.72 14.2892 20.856C14.381 20.9919 14.5237 21.0876 14.6869 21.1226C14.8501 21.1575 15.0208 21.129 15.1627 21.0431ZM22.8653 21.0431C23.5739 20.5889 24.7171 20.5455 25.4721 21.0397C25.6132 21.132 25.786 21.166 25.9527 21.1341C26.1195 21.1023 26.2664 21.0073 26.3612 20.87C26.4559 20.7325 26.4908 20.5641 26.4581 20.4016C26.4254 20.2392 26.3278 20.096 26.1869 20.0036C25.021 19.2401 23.2553 19.2987 22.1609 20.0003C22.019 20.0914 21.9201 20.2336 21.8858 20.3957C21.8514 20.5578 21.8846 20.7265 21.9779 20.8649C22.0714 21.0031 22.2173 21.0995 22.3837 21.1329C22.5501 21.1663 22.7233 21.1341 22.8653 21.0431ZM18.0608 29.4051C19.6283 30.1267 21.219 30.1119 22.605 29.3915C22.7548 29.3135 22.8668 29.1807 22.9163 29.0223C22.9657 28.8639 22.9486 28.6929 22.8687 28.5468C22.7886 28.4008 22.6523 28.2918 22.4898 28.2436C22.3272 28.1954 22.1517 28.2121 22.0017 28.2899C20.9667 28.828 19.7789 28.8151 18.6084 28.2763C18.4547 28.2056 18.2785 28.1973 18.1186 28.2531C17.9586 28.3089 17.828 28.4243 17.7553 28.5739C17.6828 28.7236 17.6742 28.8953 17.7315 29.0511C17.7888 29.2069 17.9072 29.3343 18.0608 29.4051Z" fill="#3A28FF"/>
<path fill-rule="evenodd" clip-rule="evenodd" d="M28.7728 19.0063C28.7728 19.0063 30.5385 19.0605 32.2604 16.8881C33.5796 15.2238 33.7573 12.8824 33.7573 9.20147C33.7573 9.0426 33.6951 8.88973 33.5834 8.77397C33.4718 8.65821 33.319 8.58827 33.1563 8.5784C30.5011 8.41795 29.253 7.08656 29.253 7.08656C29.1928 7.02022 29.1189 6.96709 29.0361 6.9307C28.9532 6.89431 28.8634 6.87549 28.7725 6.87549C28.6817 6.87549 28.5919 6.89431 28.509 6.9307C28.4262 6.96709 28.3523 7.02022 28.2921 7.08656C28.2921 7.08656 27.0443 8.41795 24.3893 8.5784C24.2265 8.58827 24.0738 8.65821 23.9621 8.77397C23.8504 8.88973 23.7882 9.0426 23.7882 9.20147C23.7882 12.8822 23.9658 15.2238 25.2851 16.8881C27.007 19.0605 28.7728 19.0063 28.7728 19.0063ZM28.7794 17.7579H28.7719C28.7692 17.7577 27.5494 17.7021 26.2993 16.1249C25.1837 14.7177 25.0788 12.7532 25.0703 9.76941C26.9437 9.5378 28.1582 8.8121 28.7728 8.3396C29.3871 8.8121 30.6017 9.5378 32.4752 9.76941C32.4668 12.7534 32.3617 14.7177 31.2461 16.1249C30.0498 17.6343 28.881 17.7501 28.7798 17.7574L28.7794 17.7579Z" fill="#3A28FF"/>
<path fill-rule="evenodd" clip-rule="evenodd" d="M26.5169 13.3778L27.8154 14.7139C27.8749 14.7751 27.9465 14.824 28.0259 14.8575C28.1053 14.891 28.1909 14.9085 28.2774 14.909C28.364 14.9094 28.4497 14.8927 28.5295 14.8599C28.6092 14.8272 28.6813 14.779 28.7414 14.7184L31.0089 12.4316C31.1269 12.3125 31.1915 12.1526 31.1886 11.9871C31.1856 11.8216 31.1154 11.664 30.9932 11.5489C30.8709 11.434 30.7068 11.371 30.537 11.3739C30.3671 11.3767 30.2053 11.4452 30.0872 11.5642L28.2852 13.3816L27.4473 12.5194C27.3304 12.3993 27.1693 12.3293 26.9995 12.3247C26.8297 12.3202 26.6649 12.3816 26.5415 12.4953C26.4182 12.6092 26.3463 12.7661 26.3417 12.9316C26.3371 13.0971 26.4001 13.2576 26.5169 13.3778Z" fill="#3A28FF"/>
</svg>
