<svg width="25" height="23" viewBox="0 0 25 23" fill="none" xmlns="http://www.w3.org/2000/svg">
<path d="M12.6282 0C5.90418 0 0.453186 5.1488 0.453186 11.4998C0.453186 17.8506 5.90418 23 12.6282 23C19.3524 23 24.8036 17.8508 24.8036 11.4998C24.8036 5.1488 19.3524 0 12.6282 0ZM18.5716 8.64285C18.5716 8.64285 18.8611 9.99795 17.8224 12.3785C16.7832 14.759 14.2119 17.0109 10.6702 17.2201C7.12815 17.4291 5.22042 15.9493 5.22042 15.9493C7.87718 16.1424 9.05209 15.113 9.68218 14.7751C7.21299 14.4695 6.85532 12.7163 6.85532 12.7163C7.09362 12.8129 7.82581 12.7807 8.21759 12.6843C5.79977 12.1214 5.74861 9.82138 5.74861 9.82138C5.74861 9.82138 6.6509 10.2556 7.16183 10.1751C4.82864 8.50226 6.19133 6.31481 6.19133 6.31481C9.27356 9.49965 12.5429 9.32268 12.5429 9.32268L12.5577 9.34356C12.497 9.11447 12.4663 8.8792 12.4663 8.64304C12.4663 7.05072 13.833 5.76004 15.5189 5.76004C16.4094 5.76004 17.2108 6.12054 17.7689 6.69519L17.7883 6.68485C18.8779 6.62043 19.6785 6.07361 19.6785 6.07361C19.3467 6.98908 18.6419 7.4156 18.3476 7.55916L18.3584 7.58461C18.7392 7.49752 19.7608 7.26149 20.0364 7.18355C19.44 8.21275 18.5716 8.64285 18.5716 8.64285Z" fill="black"/>
</svg>
