<svg width="10" height="8" viewBox="0 0 10 8" fill="none" xmlns="http://www.w3.org/2000/svg">
<path d="M9.17823 2.83504C9.21945 2.64952 9.05454 2.4269 8.8484 2.4269L6.49836 2.13008L5.42642 0.200711C5.38519 0.126505 5.34396 0.0894017 5.2615 0.0522984C5.05536 -0.0590112 4.80799 0.0151953 4.6843 0.200711L3.65359 2.13008L1.30355 2.4269C1.17987 2.4269 1.09741 2.46401 1.05618 2.53821C0.891266 2.68663 0.891266 2.90925 1.05618 3.05766L2.74656 4.54179L2.33427 6.65667C2.33427 6.73088 2.33427 6.80508 2.3755 6.87929C2.49918 7.06481 2.74656 7.13901 2.9527 7.0277L5.05536 6.02592L7.15802 7.0277C7.19925 7.06481 7.28171 7.06481 7.36416 7.06481C7.40539 7.06481 7.40539 7.06481 7.44662 7.06481C7.65277 7.0277 7.81768 6.84219 7.77645 6.61957L7.36416 4.50468L9.05454 3.02056C9.137 2.98345 9.17823 2.90925 9.17823 2.83504Z" fill="black"/>
</svg>
