<svg width="10" height="8" viewBox="0 0 10 8" fill="none" xmlns="http://www.w3.org/2000/svg">
<path d="M9.10999 2.83504C9.15242 2.64952 8.98273 2.4269 8.77062 2.4269L6.35258 2.13008L5.24961 0.200711C5.20719 0.126505 5.16477 0.0894017 5.07993 0.0522984C4.86782 -0.0590112 4.61329 0.0151953 4.48602 0.200711L3.42548 2.13008L1.00744 2.4269C0.880172 2.4269 0.795328 2.46401 0.752906 2.53821C0.583219 2.68663 0.583219 2.90925 0.752906 3.05766L2.4922 4.54179L2.06798 6.65667C2.06798 6.73088 2.06798 6.80508 2.1104 6.87929C2.23767 7.06481 2.4922 7.13901 2.70431 7.0277L4.86782 6.02592L7.03133 7.0277C7.07375 7.06481 7.15859 7.06481 7.24344 7.06481C7.28586 7.06481 7.28586 7.06481 7.32828 7.06481C7.54039 7.0277 7.71008 6.84219 7.66765 6.61957L7.24344 4.50468L8.98273 3.02056C9.06757 2.98345 9.10999 2.90925 9.10999 2.83504Z" fill="black"/>
</svg>
