<svg width="9" height="10" viewBox="0 0 9 10" fill="none" xmlns="http://www.w3.org/2000/svg">
<path d="M8.52097 4.22105C8.5634 3.98523 8.39371 3.70223 8.1816 3.70223L5.76356 3.32491L4.66059 0.872329C4.61817 0.777999 4.57575 0.730834 4.49091 0.683669C4.2788 0.542173 4.02427 0.636504 3.897 0.872329L2.83646 3.32491L0.418417 3.70223C0.291152 3.70223 0.206308 3.7494 0.163886 3.84373C-0.00580067 4.03239 -0.00580067 4.31538 0.163886 4.50404L1.90318 6.39064L1.47896 9.07906C1.47896 9.17339 1.47896 9.26772 1.52138 9.36205C1.64865 9.59787 1.90318 9.6922 2.11529 9.55071L4.2788 8.27725L6.44231 9.55071C6.48473 9.59787 6.56957 9.59787 6.65442 9.59787C6.69684 9.59787 6.69684 9.59787 6.73926 9.59787C6.95137 9.55071 7.12106 9.31488 7.07863 9.03189L6.65442 6.34348L8.39371 4.45688C8.47855 4.40971 8.52097 4.31538 8.52097 4.22105Z" fill="black"/>
</svg>
